<svg width="211" height="60" viewBox="0 0 211 60" fill="none" xmlns="http://www.w3.org/2000/svg">
<path d="M38.4128 16.6665H21.7462C16.7462 16.6665 13.4128 19.9998 13.4128 24.9998V34.9998C13.4128 39.9998 16.7462 43.3332 21.7462 43.3332H38.4128C43.4128 43.3332 46.7462 39.9998 46.7462 34.9998V24.9998C46.7462 19.9998 43.4128 16.6665 38.4128 16.6665ZM33.2295 31.7165L29.1128 34.1832C27.4461 35.1832 26.0795 34.4165 26.0795 32.4665V27.5165C26.0795 25.5665 27.4461 24.7999 29.1128 25.7999L33.2295 28.2665C34.8129 29.2332 34.8129 30.7665 33.2295 31.7165Z" fill="white"/>
<path d="M87.0628 13.3335H73.0962C67.0295 13.3335 63.4128 16.9502 63.4128 23.0168V36.9668C63.4128 43.0502 67.0295 46.6668 73.0962 46.6668H87.0462C93.1128 46.6668 96.7295 43.0502 96.7295 36.9835V23.0168C96.7462 16.9502 93.1295 13.3335 87.0628 13.3335ZM80.0795 36.4668C76.5128 36.4668 73.6128 33.5668 73.6128 30.0002C73.6128 26.4335 76.5128 23.5335 80.0795 23.5335C83.6462 23.5335 86.5462 26.4335 86.5462 30.0002C86.5462 33.5668 83.6462 36.4668 80.0795 36.4668ZM89.9462 21.4668C89.8628 21.6668 89.7462 21.8502 89.5962 22.0168C89.4295 22.1668 89.2462 22.2835 89.0462 22.3668C88.8462 22.4502 88.6295 22.5002 88.4128 22.5002C87.9628 22.5002 87.5462 22.3335 87.2295 22.0168C87.0795 21.8502 86.9628 21.6668 86.8795 21.4668C86.7962 21.2668 86.7462 21.0502 86.7462 20.8335C86.7462 20.6168 86.7962 20.4002 86.8795 20.2002C86.9628 19.9835 87.0795 19.8168 87.2295 19.6502C87.6128 19.2668 88.1962 19.0835 88.7295 19.2002C88.8462 19.2168 88.9462 19.2502 89.0462 19.3002C89.1462 19.3335 89.2462 19.3835 89.3462 19.4502C89.4295 19.5002 89.5128 19.5835 89.5962 19.6502C89.7462 19.8168 89.8628 19.9835 89.9462 20.2002C90.0295 20.4002 90.0795 20.6168 90.0795 20.8335C90.0795 21.0502 90.0295 21.2668 89.9462 21.4668Z" fill="white"/>
<path d="M146.713 29.0166C146.146 19.3499 137.363 11.8999 127.246 13.5666C120.279 14.7166 114.696 20.3666 113.613 27.3332C112.979 31.3666 113.813 35.1832 115.63 38.3332L114.146 43.8499C113.813 45.0999 114.963 46.2332 116.196 45.8832L121.629 44.3833C124.096 45.8333 126.979 46.6666 130.063 46.6666C139.463 46.6666 147.263 38.3833 146.713 29.0166ZM138.213 36.1999C138.063 36.4999 137.879 36.7833 137.646 37.0499C137.229 37.4999 136.779 37.8333 136.279 38.0333C135.779 38.2499 135.229 38.3499 134.646 38.3499C133.796 38.3499 132.879 38.1499 131.929 37.7333C130.963 37.3166 130.013 36.7666 129.063 36.0832C128.096 35.3832 127.196 34.5999 126.329 33.7499C125.463 32.8832 124.696 31.9666 123.996 31.0166C123.313 30.0666 122.763 29.1166 122.363 28.1666C121.963 27.2166 121.763 26.2999 121.763 25.4333C121.763 24.8666 121.863 24.3166 122.063 23.8166C122.263 23.2999 122.58 22.8333 123.03 22.4166C123.563 21.8833 124.146 21.6333 124.763 21.6333C124.996 21.6333 125.229 21.6833 125.446 21.7833C125.663 21.8833 125.863 22.0333 126.013 22.2499L127.946 24.9832C128.096 25.1999 128.213 25.3832 128.279 25.5666C128.363 25.7499 128.396 25.9166 128.396 26.0832C128.396 26.2832 128.329 26.4833 128.213 26.6833C128.096 26.8833 127.946 27.0832 127.746 27.2832L127.113 27.9499C127.013 28.0499 126.98 28.1499 126.98 28.2832C126.98 28.3499 126.996 28.4166 127.013 28.4832C127.046 28.5499 127.063 28.5999 127.08 28.6499C127.23 28.9332 127.496 29.2832 127.863 29.7166C128.246 30.1499 128.646 30.5999 129.08 31.0332C129.53 31.4832 129.963 31.8832 130.413 32.2666C130.846 32.6332 131.213 32.8833 131.496 33.0333C131.546 33.0499 131.596 33.0832 131.646 33.0999C131.713 33.1332 131.779 33.1333 131.863 33.1333C132.013 33.1333 132.113 33.0833 132.213 32.9833L132.846 32.3499C133.063 32.1333 133.263 31.9833 133.446 31.8833C133.646 31.7666 133.829 31.6999 134.046 31.6999C134.213 31.6999 134.379 31.7332 134.563 31.8166C134.746 31.8999 134.946 31.9999 135.146 32.1499L137.913 34.1166C138.13 34.2666 138.279 34.4499 138.379 34.6499C138.463 34.8666 138.513 35.0666 138.513 35.2999C138.413 35.5832 138.346 35.8999 138.213 36.1999Z" fill="white"/>
<path d="M180.079 13.3335C176.783 13.3335 173.561 14.311 170.82 16.1423C168.079 17.9737 165.943 20.5767 164.681 23.6221C163.42 26.6675 163.09 30.0187 163.733 33.2517C164.376 36.4847 165.963 39.4544 168.294 41.7853C170.625 44.1162 173.595 45.7035 176.828 46.3466C180.061 46.9897 183.412 46.6596 186.458 45.3982C189.503 44.1367 192.106 42.0005 193.937 39.2597C195.769 36.5188 196.746 33.2965 196.746 30.0002C196.742 25.5812 194.984 21.3446 191.86 18.2199C188.735 15.0953 184.498 13.3379 180.079 13.3335ZM189.978 26.1885V27.2652C189.978 27.3476 189.961 27.4291 189.929 27.5051C189.897 27.581 189.85 27.6497 189.791 27.7072C189.732 27.7647 189.662 27.8098 189.586 27.8398C189.509 27.8698 189.427 27.8841 189.344 27.8818C187.585 27.7571 185.901 27.1146 184.506 26.0352V33.9152C184.506 34.7873 184.332 35.6507 183.994 36.4548C183.657 37.2589 183.162 37.9877 182.539 38.5985C181.911 39.2246 181.165 39.7194 180.344 40.0542C179.523 40.389 178.643 40.557 177.756 40.5485C175.973 40.5454 174.261 39.8456 172.986 38.5985C172.175 37.7808 171.591 36.7661 171.291 35.6542C170.991 34.5422 170.986 33.3714 171.276 32.2568C171.541 31.1868 172.076 30.2035 172.831 29.4018C173.394 28.7136 174.104 28.16 174.908 27.7814C175.713 27.4027 176.592 27.2087 177.481 27.2135H178.848V30.0518C178.848 30.1343 178.831 30.2159 178.798 30.2912C178.765 30.3666 178.715 30.434 178.654 30.4888C178.592 30.5437 178.52 30.5849 178.441 30.6095C178.363 30.6342 178.28 30.6418 178.198 30.6318C177.404 30.3935 176.549 30.4725 175.813 30.8523C175.077 31.2321 174.516 31.883 174.251 32.6677C173.985 33.4525 174.034 34.3098 174.388 35.0589C174.742 35.8081 175.373 36.3905 176.148 36.6835C176.598 36.9418 177.101 37.0935 177.618 37.1285C178.018 37.1452 178.418 37.0952 178.798 36.9752C179.432 36.7616 179.985 36.3551 180.377 35.8124C180.769 35.2698 180.982 34.6181 180.986 33.9485V19.5902C180.986 19.5114 181.001 19.4335 181.031 19.3607C181.061 19.2879 181.105 19.2217 181.161 19.166C181.216 19.1103 181.282 19.066 181.355 19.0359C181.428 19.0057 181.506 18.9902 181.584 18.9902H183.943C184.096 18.9899 184.244 19.0486 184.355 19.1541C184.466 19.2595 184.533 19.4037 184.541 19.5568C184.627 20.2921 184.861 21.0025 185.228 21.6454C185.595 22.2883 186.088 22.8505 186.678 23.2985C187.475 23.8966 188.421 24.2634 189.413 24.3585C189.561 24.3712 189.7 24.4373 189.804 24.5445C189.907 24.6518 189.969 24.7929 189.976 24.9418L189.978 26.1885Z" fill="#FFFDFD"/>
</svg>
