<svg width="70" height="70" viewBox="0 0 70 70" fill="none" xmlns="http://www.w3.org/2000/svg">
<circle cx="35" cy="35" r="35" fill="#FFD600"/>
<g clip-path="url(#clip0_246_888)">
<path fill-rule="evenodd" clip-rule="evenodd" d="M54.8875 20.6479C55.4733 21.234 55.8024 22.0287 55.8024 22.8573C55.8024 23.6859 55.4733 24.4807 54.8875 25.0667L31.4646 48.4896C31.155 48.7992 30.7875 49.0448 30.3831 49.2124C29.9786 49.3799 29.5451 49.4662 29.1073 49.4662C28.6695 49.4662 28.2359 49.3799 27.8315 49.2124C27.427 49.0448 27.0595 48.7992 26.75 48.4896L15.1125 36.8542C14.814 36.5659 14.5759 36.2211 14.4122 35.8398C14.2484 35.4586 14.1622 35.0485 14.1586 34.6336C14.155 34.2186 14.234 33.8071 14.3912 33.4231C14.5483 33.039 14.7803 32.6901 15.0737 32.3967C15.3672 32.1033 15.7161 31.8712 16.1001 31.7141C16.4842 31.557 16.8957 31.4779 17.3106 31.4815C17.7255 31.4851 18.1356 31.5713 18.5169 31.7351C18.8981 31.8989 19.243 32.137 19.5312 32.4354L29.1062 42.0104L50.4666 20.6479C50.7568 20.3575 51.1014 20.1272 51.4807 19.97C51.86 19.8128 52.2665 19.7319 52.6771 19.7319C53.0876 19.7319 53.4941 19.8128 53.8734 19.97C54.2527 20.1272 54.5973 20.3575 54.8875 20.6479Z" fill="black"/>
</g>
<defs>
<clipPath id="clip0_246_888">
<rect width="50" height="50" fill="white" transform="translate(10 10)"/>
</clipPath>
</defs>
</svg>
