<svg width="32" height="32" viewBox="0 0 32 32" fill="none" xmlns="http://www.w3.org/2000/svg">
<path d="M4.92312 31.0172L15.925 20.0152L26.927 31.0172C27.3967 31.4869 27.9948 31.7178 28.7007 31.7178C29.4066 31.7178 30.0047 31.4869 30.4744 31.0172C30.9442 30.5475 31.175 29.9494 31.175 29.2434C31.175 28.5375 30.9442 27.9394 30.4744 27.4697L19.4725 16.4678L30.4744 5.46584C30.9442 4.99613 31.175 4.39803 31.175 3.69211C31.175 2.98619 30.9442 2.38809 30.4744 1.91837C30.0047 1.44866 29.4066 1.21777 28.7007 1.21777C27.9948 1.21777 27.3967 1.44866 26.927 1.91837L15.925 12.9203L4.92312 1.91837C4.4534 1.44866 3.8553 1.21777 3.14938 1.21777C2.44346 1.21777 1.84536 1.44866 1.37565 1.91837C0.905929 2.38809 0.675049 2.98619 0.675049 3.69211C0.675049 4.39803 0.905929 4.99613 1.37565 5.46584L12.3776 16.4678L1.37565 27.4697C0.905929 27.9394 0.675049 28.5375 0.675049 29.2434C0.675049 29.9494 0.905929 30.5475 1.37565 31.0172C1.84536 31.4869 2.44346 31.7178 3.14938 31.7178C3.8553 31.7178 4.4534 31.4869 4.92312 31.0172Z" fill="white" stroke="white" stroke-width="0.5"/>
</svg>
