<svg width="118" height="17" viewBox="0 0 118 17" fill="none" xmlns="http://www.w3.org/2000/svg">
<path d="M17.2426 7.76181L13.727 10.7954L14.798 15.3321C14.8571 15.5784 14.8419 15.8367 14.7543 16.0743C14.6667 16.3119 14.5106 16.5183 14.3058 16.6672C14.101 16.8162 13.8566 16.9011 13.6035 16.9113C13.3505 16.9215 13.1001 16.8564 12.884 16.7243L8.93867 14.2962L4.99102 16.7243C4.77494 16.8556 4.52485 16.9201 4.27222 16.9095C4.01959 16.899 3.77572 16.814 3.57133 16.6651C3.36694 16.5163 3.21115 16.3103 3.1236 16.0731C3.03604 15.8359 3.02063 15.5781 3.0793 15.3321L4.1543 10.7954L0.638672 7.76181C0.447499 7.59658 0.309238 7.37869 0.241158 7.13536C0.173078 6.89202 0.178196 6.63402 0.255871 6.39358C0.333547 6.15313 0.480338 5.9409 0.677913 5.78339C0.875488 5.62587 1.11509 5.53005 1.3668 5.5079L5.97617 5.13602L7.7543 0.832899C7.85054 0.598382 8.01435 0.397781 8.2249 0.256601C8.43545 0.115421 8.68322 0.0400391 8.93672 0.0400391C9.19022 0.0400391 9.43799 0.115421 9.64854 0.256601C9.85909 0.397781 10.0229 0.598382 10.1191 0.832899L11.8965 5.13602L16.5059 5.5079C16.7581 5.52923 16.9984 5.62451 17.1967 5.78181C17.395 5.93911 17.5424 6.15143 17.6206 6.39216C17.6987 6.6329 17.7041 6.89134 17.636 7.13512C17.568 7.3789 17.4295 7.59717 17.2379 7.76259L17.2426 7.76181Z" fill="#EEBD06"/>
<path d="M42.205 7.76181L38.6894 10.7954L39.7605 15.3321C39.8196 15.5784 39.8044 15.8367 39.7168 16.0743C39.6292 16.3119 39.4731 16.5183 39.2683 16.6672C39.0635 16.8162 38.8191 16.9011 38.566 16.9113C38.3129 16.9215 38.0625 16.8564 37.8464 16.7243L33.9011 14.2962L29.9535 16.7243C29.7374 16.8556 29.4873 16.9201 29.2347 16.9095C28.9821 16.899 28.7382 16.814 28.5338 16.6651C28.3294 16.5163 28.1736 16.3103 28.0861 16.0731C27.9985 15.8359 27.9831 15.5781 28.0418 15.3321L29.1168 10.7954L25.6011 7.76181C25.41 7.59658 25.2717 7.37869 25.2036 7.13536C25.1355 6.89202 25.1407 6.63402 25.2183 6.39358C25.296 6.15313 25.4428 5.9409 25.6404 5.78339C25.838 5.62587 26.0776 5.53005 26.3293 5.5079L30.9386 5.13602L32.7168 0.832899C32.813 0.598382 32.9768 0.397781 33.1874 0.256601C33.3979 0.115421 33.6457 0.0400391 33.8992 0.0400391C34.1527 0.0400391 34.4005 0.115421 34.611 0.256601C34.8215 0.397781 34.9854 0.598382 35.0816 0.832899L36.8589 5.13602L41.4683 5.5079C41.7205 5.52923 41.9608 5.62451 42.1591 5.78181C42.3574 5.93911 42.5049 6.15143 42.583 6.39216C42.6612 6.6329 42.6666 6.89134 42.5985 7.13512C42.5304 7.3789 42.3919 7.59717 42.2004 7.76259L42.205 7.76181Z" fill="#EEBD06"/>
<path d="M67.1675 7.76181L63.6519 10.7954L64.723 15.3321C64.7821 15.5784 64.7669 15.8367 64.6792 16.0743C64.5916 16.3119 64.4356 16.5183 64.2307 16.6672C64.0259 16.8162 63.7815 16.9011 63.5285 16.9113C63.2754 16.9215 63.025 16.8564 62.8089 16.7243L58.8636 14.2962L54.9159 16.7243C54.6999 16.8556 54.4498 16.9201 54.1971 16.9095C53.9445 16.899 53.7007 16.814 53.4963 16.6651C53.2919 16.5163 53.1361 16.3103 53.0485 16.0731C52.961 15.8359 52.9456 15.5781 53.0042 15.3321L54.0792 10.7954L50.5636 7.76181C50.3724 7.59658 50.2342 7.37869 50.1661 7.13536C50.098 6.89202 50.1031 6.63402 50.1808 6.39358C50.2585 6.15313 50.4053 5.9409 50.6028 5.78339C50.8004 5.62587 51.04 5.53005 51.2917 5.5079L55.9011 5.13602L57.6792 0.832899C57.7755 0.598382 57.9393 0.397781 58.1498 0.256601C58.3604 0.115421 58.6081 0.0400391 58.8616 0.0400391C59.1151 0.0400391 59.3629 0.115421 59.5735 0.256601C59.784 0.397781 59.9478 0.598382 60.0441 0.832899L61.8214 5.13602L66.4308 5.5079C66.683 5.52923 66.9233 5.62451 67.1216 5.78181C67.3199 5.93911 67.4673 6.15143 67.5455 6.39216C67.6237 6.6329 67.629 6.89134 67.561 7.13512C67.4929 7.3789 67.3544 7.59717 67.1628 7.76259L67.1675 7.76181Z" fill="#EEBD06"/>
<path d="M92.13 7.76181L88.6143 10.7954L89.6854 15.3321C89.7445 15.5784 89.7293 15.8367 89.6417 16.0743C89.5541 16.3119 89.398 16.5183 89.1932 16.6672C88.9884 16.8162 88.744 16.9011 88.4909 16.9113C88.2379 16.9215 87.9875 16.8564 87.7714 16.7243L83.8261 14.2962L79.8784 16.7243C79.6623 16.8556 79.4122 16.9201 79.1596 16.9095C78.907 16.899 78.6631 16.814 78.4587 16.6651C78.2543 16.5163 78.0985 16.3103 78.011 16.0731C77.9234 15.8359 77.908 15.5781 77.9667 15.3321L79.0417 10.7954L75.5261 7.76181C75.3349 7.59658 75.1966 7.37869 75.1285 7.13536C75.0605 6.89202 75.0656 6.63402 75.1433 6.39358C75.2209 6.15313 75.3677 5.9409 75.5653 5.78339C75.7629 5.62587 76.0025 5.53005 76.2542 5.5079L80.8636 5.13602L82.6417 0.832899C82.7379 0.598382 82.9017 0.397781 83.1123 0.256601C83.3228 0.115421 83.5706 0.0400391 83.8241 0.0400391C84.0776 0.0400391 84.3254 0.115421 84.5359 0.256601C84.7465 0.397781 84.9103 0.598382 85.0065 0.832899L86.7839 5.13602L91.3932 5.5079C91.6455 5.52923 91.8858 5.62451 92.0841 5.78181C92.2823 5.93911 92.4298 6.15143 92.508 6.39216C92.5861 6.6329 92.5915 6.89134 92.5234 7.13512C92.4554 7.3789 92.3169 7.59717 92.1253 7.76259L92.13 7.76181Z" fill="#EEBD06"/>
<path d="M117.092 7.76181L113.577 10.7954L114.648 15.3321C114.707 15.5784 114.692 15.8367 114.604 16.0743C114.517 16.3119 114.36 16.5183 114.156 16.6672C113.951 16.8162 113.706 16.9011 113.453 16.9113C113.2 16.9215 112.95 16.8564 112.734 16.7243L108.789 14.2962L104.841 16.7243C104.625 16.8556 104.375 16.9201 104.122 16.9095C103.869 16.899 103.626 16.814 103.421 16.6651C103.217 16.5163 103.061 16.3103 102.973 16.0731C102.886 15.8359 102.87 15.5781 102.929 15.3321L104.004 10.7954L100.489 7.76181C100.297 7.59658 100.159 7.37869 100.091 7.13536C100.023 6.89202 100.028 6.63402 100.106 6.39358C100.183 6.15313 100.33 5.9409 100.528 5.78339C100.725 5.62587 100.965 5.53005 101.217 5.5079L105.826 5.13602L107.604 0.832899C107.7 0.598382 107.864 0.397781 108.075 0.256601C108.285 0.115421 108.533 0.0400391 108.787 0.0400391C109.04 0.0400391 109.288 0.115421 109.498 0.256601C109.709 0.397781 109.873 0.598382 109.969 0.832899L111.746 5.13602L116.356 5.5079C116.608 5.52923 116.848 5.62451 117.047 5.78181C117.245 5.93911 117.392 6.15143 117.47 6.39216C117.549 6.6329 117.554 6.89134 117.486 7.13512C117.418 7.3789 117.279 7.59717 117.088 7.76259L117.092 7.76181Z" fill="#EEBD06"/>
</svg>
