<svg width="93" height="18" viewBox="0 0 93 18" fill="none" xmlns="http://www.w3.org/2000/svg">
<path d="M17.2426 8.31796L13.727 11.3516L14.798 15.8883C14.8571 16.1345 14.8419 16.3928 14.7543 16.6304C14.6667 16.8681 14.5106 17.0744 14.3058 17.2234C14.101 17.3724 13.8566 17.4573 13.6035 17.4675C13.3505 17.4776 13.1001 17.4125 12.884 17.2805L8.93867 14.8523L4.99102 17.2805C4.77494 17.4118 4.52485 17.4762 4.27222 17.4657C4.01959 17.4552 3.77572 17.3701 3.57133 17.2213C3.36694 17.0724 3.21115 16.8664 3.1236 16.6292C3.03604 16.392 3.02063 16.1342 3.0793 15.8883L4.1543 11.3516L0.638672 8.31796C0.447499 8.15273 0.309238 7.93485 0.241158 7.69151C0.173078 7.44817 0.178196 7.19017 0.255871 6.94973C0.333547 6.70929 0.480338 6.49705 0.677913 6.33954C0.875488 6.18202 1.11509 6.08621 1.3668 6.06405L5.97617 5.69218L7.7543 1.38905C7.85054 1.15453 8.01435 0.953933 8.2249 0.812753C8.43545 0.671573 8.68322 0.596191 8.93672 0.596191C9.19022 0.596191 9.43799 0.671573 9.64854 0.812753C9.85909 0.953933 10.0229 1.15453 10.1191 1.38905L11.8965 5.69218L16.5059 6.06405C16.7581 6.08538 16.9984 6.18066 17.1967 6.33796C17.395 6.49526 17.5424 6.70758 17.6206 6.94831C17.6987 7.18905 17.7041 7.4475 17.636 7.69128C17.568 7.93506 17.4295 8.15333 17.2379 8.31874L17.2426 8.31796Z" fill="#EEBD06"/>
<path d="M42.205 8.31796L38.6894 11.3516L39.7605 15.8883C39.8196 16.1345 39.8044 16.3928 39.7168 16.6304C39.6292 16.8681 39.4731 17.0744 39.2683 17.2234C39.0635 17.3724 38.8191 17.4573 38.566 17.4675C38.3129 17.4776 38.0625 17.4125 37.8464 17.2805L33.9011 14.8523L29.9535 17.2805C29.7374 17.4118 29.4873 17.4762 29.2347 17.4657C28.9821 17.4552 28.7382 17.3701 28.5338 17.2213C28.3294 17.0724 28.1736 16.8664 28.0861 16.6292C27.9985 16.392 27.9831 16.1342 28.0418 15.8883L29.1168 11.3516L25.6011 8.31796C25.41 8.15273 25.2717 7.93485 25.2036 7.69151C25.1355 7.44817 25.1407 7.19017 25.2183 6.94973C25.296 6.70929 25.4428 6.49705 25.6404 6.33954C25.838 6.18202 26.0776 6.08621 26.3293 6.06405L30.9386 5.69218L32.7168 1.38905C32.813 1.15453 32.9768 0.953933 33.1874 0.812753C33.3979 0.671573 33.6457 0.596191 33.8992 0.596191C34.1527 0.596191 34.4005 0.671573 34.611 0.812753C34.8215 0.953933 34.9854 1.15453 35.0816 1.38905L36.8589 5.69218L41.4683 6.06405C41.7205 6.08538 41.9608 6.18066 42.1591 6.33796C42.3574 6.49526 42.5049 6.70758 42.583 6.94831C42.6612 7.18905 42.6666 7.4475 42.5985 7.69128C42.5304 7.93506 42.3919 8.15333 42.2004 8.31874L42.205 8.31796Z" fill="#EEBD06"/>
<path d="M67.1675 8.31796L63.6519 11.3516L64.723 15.8883C64.7821 16.1345 64.7669 16.3928 64.6792 16.6304C64.5916 16.8681 64.4356 17.0744 64.2307 17.2234C64.0259 17.3724 63.7815 17.4573 63.5285 17.4675C63.2754 17.4776 63.025 17.4125 62.8089 17.2805L58.8636 14.8523L54.9159 17.2805C54.6999 17.4118 54.4498 17.4762 54.1971 17.4657C53.9445 17.4552 53.7007 17.3701 53.4963 17.2213C53.2919 17.0724 53.1361 16.8664 53.0485 16.6292C52.961 16.392 52.9456 16.1342 53.0042 15.8883L54.0792 11.3516L50.5636 8.31796C50.3724 8.15273 50.2342 7.93485 50.1661 7.69151C50.098 7.44817 50.1031 7.19017 50.1808 6.94973C50.2585 6.70929 50.4053 6.49705 50.6028 6.33954C50.8004 6.18202 51.04 6.08621 51.2917 6.06405L55.9011 5.69218L57.6792 1.38905C57.7755 1.15453 57.9393 0.953933 58.1498 0.812753C58.3604 0.671573 58.6081 0.596191 58.8616 0.596191C59.1151 0.596191 59.3629 0.671573 59.5735 0.812753C59.784 0.953933 59.9478 1.15453 60.0441 1.38905L61.8214 5.69218L66.4308 6.06405C66.683 6.08538 66.9233 6.18066 67.1216 6.33796C67.3199 6.49526 67.4673 6.70758 67.5455 6.94831C67.6237 7.18905 67.629 7.4475 67.561 7.69128C67.4929 7.93506 67.3544 8.15333 67.1628 8.31874L67.1675 8.31796Z" fill="#EEBD06"/>
<path d="M92.13 8.31796L88.6143 11.3516L89.6854 15.8883C89.7445 16.1345 89.7293 16.3928 89.6417 16.6304C89.5541 16.8681 89.398 17.0744 89.1932 17.2234C88.9884 17.3724 88.744 17.4573 88.4909 17.4675C88.2379 17.4776 87.9875 17.4125 87.7714 17.2805L83.8261 14.8523L79.8784 17.2805C79.6623 17.4118 79.4122 17.4762 79.1596 17.4657C78.907 17.4552 78.6631 17.3701 78.4587 17.2213C78.2543 17.0724 78.0985 16.8664 78.011 16.6292C77.9234 16.392 77.908 16.1342 77.9667 15.8883L79.0417 11.3516L75.5261 8.31796C75.3349 8.15273 75.1966 7.93485 75.1285 7.69151C75.0605 7.44817 75.0656 7.19017 75.1433 6.94973C75.2209 6.70929 75.3677 6.49705 75.5653 6.33954C75.7629 6.18202 76.0025 6.08621 76.2542 6.06405L80.8636 5.69218L82.6417 1.38905C82.7379 1.15453 82.9017 0.953933 83.1123 0.812753C83.3228 0.671573 83.5706 0.596191 83.8241 0.596191C84.0776 0.596191 84.3254 0.671573 84.5359 0.812753C84.7465 0.953933 84.9103 1.15453 85.0065 1.38905L86.7839 5.69218L91.3932 6.06405C91.6455 6.08538 91.8858 6.18066 92.0841 6.33796C92.2823 6.49526 92.4298 6.70758 92.508 6.94831C92.5861 7.18905 92.5915 7.4475 92.5234 7.69128C92.4554 7.93506 92.3169 8.15333 92.1253 8.31874L92.13 8.31796Z" fill="#EEBD06"/>
</svg>
