<svg width="20" height="20" viewBox="0 0 20 20" fill="none" xmlns="http://www.w3.org/2000/svg">
<path d="M11.0286 0C12.1536 0.003 12.7246 0.009 13.2176 0.023L13.4116 0.03C13.6356 0.038 13.8566 0.0479999 14.1236 0.0599999C15.1876 0.11 15.9136 0.278 16.5506 0.525C17.2106 0.779 17.7666 1.123 18.3226 1.678C18.8313 2.17773 19.2248 2.78247 19.4756 3.45C19.7226 4.087 19.8906 4.813 19.9406 5.878C19.9526 6.144 19.9626 6.365 19.9706 6.59L19.9766 6.784C19.9916 7.276 19.9976 7.847 19.9996 8.972L20.0006 9.718V11.028C20.003 11.7574 19.9953 12.4868 19.9776 13.216L19.9716 13.41C19.9636 13.635 19.9536 13.856 19.9416 14.122C19.8916 15.187 19.7216 15.912 19.4756 16.55C19.2248 17.2175 18.8313 17.8223 18.3226 18.322C17.8228 18.8307 17.2181 19.2242 16.5506 19.475C15.9136 19.722 15.1876 19.89 14.1236 19.94L13.4116 19.97L13.2176 19.976C12.7246 19.99 12.1536 19.997 11.0286 19.999L10.2826 20H8.97357C8.24383 20.0026 7.51409 19.9949 6.78457 19.977L6.59057 19.971C6.35318 19.962 6.11584 19.9517 5.87857 19.94C4.81457 19.89 4.08857 19.722 3.45057 19.475C2.7834 19.2241 2.17901 18.8306 1.67957 18.322C1.17051 17.8224 0.776678 17.2176 0.525569 16.55C0.278569 15.913 0.110569 15.187 0.0605687 14.122L0.0305688 13.41L0.0255689 13.216C0.00713493 12.4868 -0.00119929 11.7574 0.000568797 11.028V8.972C-0.0021991 8.2426 0.00513501 7.5132 0.0225689 6.784L0.0295688 6.59C0.0375688 6.365 0.0475688 6.144 0.0595688 5.878C0.109569 4.813 0.277569 4.088 0.524569 3.45C0.776263 2.7822 1.17079 2.17744 1.68057 1.678C2.17972 1.16955 2.78376 0.776074 3.45057 0.525C4.08857 0.278 4.81357 0.11 5.87857 0.0599999C6.14457 0.0479999 6.36657 0.038 6.59057 0.03L6.78457 0.0239999C7.51376 0.00623271 8.24316 -0.0014347 8.97257 0.000999928L11.0286 0ZM10.0006 5C8.67449 5 7.40272 5.52678 6.46503 6.46447C5.52735 7.40215 5.00057 8.67392 5.00057 10C5.00057 11.3261 5.52735 12.5979 6.46503 13.5355C7.40272 14.4732 8.67449 15 10.0006 15C11.3267 15 12.5984 14.4732 13.5361 13.5355C14.4738 12.5979 15.0006 11.3261 15.0006 10C15.0006 8.67392 14.4738 7.40215 13.5361 6.46447C12.5984 5.52678 11.3267 5 10.0006 5ZM10.0006 7C10.3945 6.99993 10.7847 7.07747 11.1487 7.22817C11.5127 7.37887 11.8434 7.5998 12.122 7.87833C12.4007 8.15686 12.6217 8.48754 12.7725 8.85149C12.9233 9.21544 13.001 9.60553 13.0011 9.9995C13.0011 10.3935 12.9236 10.7836 12.7729 11.1476C12.6222 11.5116 12.4013 11.8423 12.1227 12.121C11.8442 12.3996 11.5135 12.6206 11.1496 12.7714C10.7856 12.9223 10.3955 12.9999 10.0016 13C9.20592 13 8.44286 12.6839 7.88025 12.1213C7.31764 11.5587 7.00157 10.7956 7.00157 10C7.00157 9.20435 7.31764 8.44129 7.88025 7.87868C8.44286 7.31607 9.20592 7 10.0016 7M15.2516 3.5C14.92 3.5 14.6021 3.6317 14.3677 3.86612C14.1333 4.10054 14.0016 4.41848 14.0016 4.75C14.0016 5.08152 14.1333 5.39946 14.3677 5.63388C14.6021 5.8683 14.92 6 15.2516 6C15.5831 6 15.901 5.8683 16.1355 5.63388C16.3699 5.39946 16.5016 5.08152 16.5016 4.75C16.5016 4.41848 16.3699 4.10054 16.1355 3.86612C15.901 3.6317 15.5831 3.5 15.2516 3.5Z" fill="white"/>
</svg>
