<svg width="58" height="59" viewBox="0 0 58 59" fill="none" xmlns="http://www.w3.org/2000/svg">
<rect y="0.0810547" width="58" height="58" rx="29" fill="#F1F1F1"/>
<path d="M35.6666 17.7476H22.3333C18.3333 17.7476 15.6666 19.7476 15.6666 24.4142V33.7476C15.6666 38.4142 18.3333 40.4142 22.3333 40.4142H35.6666C39.6666 40.4142 42.3333 38.4142 42.3333 33.7476V24.4142C42.3333 19.7476 39.6666 17.7476 35.6666 17.7476ZM36.2933 25.8676L32.12 29.2009C31.24 29.9076 30.12 30.2542 29 30.2542C27.88 30.2542 26.7466 29.9076 25.88 29.2009L21.7066 25.8676C21.28 25.5209 21.2133 24.8809 21.5466 24.4542C21.8933 24.0276 22.52 23.9476 22.9466 24.2942L27.12 27.6276C28.1333 28.4409 29.8533 28.4409 30.8666 27.6276L35.04 24.2942C35.4666 23.9476 36.1066 24.0142 36.44 24.4542C36.7866 24.8809 36.72 25.5209 36.2933 25.8676Z" fill="#FFD600"/>
</svg>
