<svg width="34" height="31" viewBox="0 0 34 31" fill="none" xmlns="http://www.w3.org/2000/svg">
<path d="M31.0852 25.1737C31.765 25.174 32.4186 25.4359 32.9106 25.905C33.4026 26.3741 33.6953 27.0145 33.7279 27.6935C33.7606 28.3725 33.5308 29.0381 33.0861 29.5522C32.6414 30.0664 32.016 30.3898 31.3394 30.4554L31.0852 30.4678H2.84994C2.17015 30.4674 1.51654 30.2056 1.02455 29.7365C0.53257 29.2673 0.239918 28.6269 0.20725 27.9479C0.174581 27.2689 0.404396 26.6034 0.84907 26.0892C1.29375 25.575 1.9192 25.2516 2.59582 25.186L2.84994 25.1737H31.0852ZM31.0852 12.8207C31.7873 12.8207 32.4606 13.0996 32.957 13.596C33.4534 14.0924 33.7323 14.7657 33.7323 15.4678C33.7323 16.1698 33.4534 16.8431 32.957 17.3395C32.4606 17.8359 31.7873 18.1148 31.0852 18.1148H2.84994C2.1479 18.1148 1.47461 17.8359 0.97819 17.3395C0.481767 16.8431 0.202881 16.1698 0.202881 15.4678C0.202881 14.7657 0.481767 14.0924 0.97819 13.596C1.47461 13.0996 2.1479 12.8207 2.84994 12.8207H31.0852ZM31.0852 0.467773C31.7873 0.467773 32.4606 0.746659 32.957 1.24308C33.4534 1.7395 33.7323 2.41279 33.7323 3.11483C33.7323 3.81688 33.4534 4.49017 32.957 4.98659C32.4606 5.48301 31.7873 5.76189 31.0852 5.76189H2.84994C2.1479 5.76189 1.47461 5.48301 0.97819 4.98659C0.481767 4.49017 0.202881 3.81688 0.202881 3.11483C0.202881 2.41279 0.481767 1.7395 0.97819 1.24308C1.47461 0.746659 2.1479 0.467773 2.84994 0.467773H31.0852Z" fill="white"/>
</svg>
