<svg width="18" height="18" viewBox="0 0 18 18" fill="none" xmlns="http://www.w3.org/2000/svg">
<path d="M17.2426 7.98641L13.727 11.02L14.798 15.5567C14.8571 15.803 14.8419 16.0613 14.7543 16.2989C14.6667 16.5365 14.5106 16.7429 14.3058 16.8918C14.101 17.0408 13.8566 17.1258 13.6035 17.1359C13.3505 17.1461 13.1001 17.081 12.884 16.9489L8.93867 14.5208L4.99102 16.9489C4.77494 17.0802 4.52485 17.1447 4.27222 17.1342C4.01959 17.1236 3.77572 17.0386 3.57133 16.8897C3.36694 16.7409 3.21115 16.5349 3.1236 16.2977C3.03604 16.0605 3.02063 15.8027 3.0793 15.5567L4.1543 11.02L0.638672 7.98641C0.447499 7.82119 0.309238 7.6033 0.241158 7.35997C0.173078 7.11663 0.178196 6.85863 0.255871 6.61819C0.333547 6.37774 0.480338 6.16551 0.677913 6.008C0.875488 5.85048 1.11509 5.75466 1.3668 5.73251L5.97617 5.36063L7.7543 1.05751C7.85054 0.822991 8.01435 0.62239 8.2249 0.48121C8.43545 0.34003 8.68322 0.264648 8.93672 0.264648C9.19022 0.264648 9.43799 0.34003 9.64854 0.48121C9.85909 0.62239 10.0229 0.822991 10.1191 1.05751L11.8965 5.36063L16.5059 5.73251C16.7581 5.75384 16.9984 5.84912 17.1967 6.00642C17.395 6.16372 17.5424 6.37603 17.6206 6.61677C17.6987 6.85751 17.7041 7.11595 17.636 7.35973C17.568 7.60351 17.4295 7.82178 17.2379 7.9872L17.2426 7.98641Z" fill="#EEBD06"/>
</svg>
