<svg width="1440" height="148" viewBox="0 0 1440 148" fill="none" xmlns="http://www.w3.org/2000/svg">
<g clip-path="url(#clip0_64_1463)">
<path d="M0 24.0811C0 10.8262 10.7452 0.0810547 24 0.0810547H1440V123.081C1440 136.336 1429.25 147.081 1416 147.081H0V24.0811Z" fill="#FFD600"/>
<rect width="4331" height="58" transform="translate(-19 60.9966) rotate(-2.5)" fill="white"/>
<path d="M-2.00778 106.299L-12.7703 106.768L-14.293 71.8925L-3.05368 71.4018C0.329462 71.2541 3.25491 71.8259 5.72268 73.1172C8.18995 74.3972 10.1218 76.3091 11.5182 78.8528C12.914 81.3853 13.6908 84.4566 13.8484 88.0668C14.007 91.6997 13.4965 94.8557 12.3168 97.5347C11.1365 100.202 9.33971 102.294 6.92626 103.81C4.51231 105.314 1.5343 106.144 -2.00778 106.299ZM-8.71058 102.838L-2.44382 102.564C0.439792 102.438 2.80527 101.777 4.65262 100.582C6.49996 99.3867 7.84424 97.7413 8.68546 95.6458C9.52667 93.5503 9.88532 91.0834 9.7614 88.2452C9.63847 85.4297 9.07286 83.026 8.06455 81.034C7.05575 79.0306 5.61366 77.5239 3.73827 76.5138C1.86238 75.4924 -0.437897 75.0412 -3.16257 75.1602L-9.90615 75.4546L-8.71058 102.838ZM20.4327 105.319L19.2906 79.1618L23.3095 78.9864L24.4516 105.143L20.4327 105.319ZM21.1438 74.7131C20.3604 74.7473 19.6733 74.51 19.0824 74.0012C18.5028 73.4919 18.1966 72.8627 18.1639 72.1134C18.1312 71.3641 18.3813 70.7105 18.9143 70.1526C19.4587 69.5943 20.1225 69.298 20.9059 69.2638C21.6892 69.2296 22.3707 69.4671 22.9503 69.9764C23.5412 70.4852 23.853 71.1143 23.8857 71.8635C23.9185 72.6128 23.6626 73.2667 23.1183 73.825C22.5853 74.3829 21.9271 74.6789 21.1438 74.7131ZM48.7347 83.7455L45.1691 84.9249C44.9157 84.3331 44.5553 83.7631 44.0878 83.2147C43.6311 82.6546 43.0199 82.2035 42.2543 81.8616C41.4886 81.5197 40.5211 81.3742 39.3518 81.4253C37.7511 81.4952 36.4332 81.9224 35.3983 82.7069C34.3742 83.4796 33.8867 84.4279 33.9357 85.5518C33.9794 86.5509 34.3771 87.324 35.129 87.8713C35.8808 88.4186 37.0372 88.8515 38.598 89.1701L42.5223 89.9542C44.8858 90.4197 46.6663 91.2122 47.864 92.3314C49.0612 93.4394 49.6997 94.9072 49.7795 96.735C49.845 98.2336 49.472 99.5921 48.6608 100.81C47.8609 102.028 46.7095 103.011 45.2066 103.759C43.7037 104.507 41.9362 104.926 39.904 105.015C37.2361 105.131 35.0027 104.648 33.2038 103.567C31.4049 102.485 30.2241 100.842 29.6615 98.6371L33.4344 97.5169C33.8592 98.9088 34.5921 99.9346 35.6333 100.594C36.6858 101.254 38.0351 101.547 39.6812 101.475C41.5545 101.394 43.0243 100.931 44.0908 100.089C45.1682 99.234 45.6824 98.2447 45.6333 97.1208C45.5937 96.2126 45.2426 95.4658 44.58 94.8805C43.917 94.2839 42.9204 93.861 41.5901 93.612L37.186 92.7806C34.7657 92.3175 32.9676 91.5145 31.7917 90.3715C30.6265 89.2167 30.0046 87.7368 29.9258 85.9317C29.8613 84.4558 30.2187 83.1321 30.9979 81.9607C31.7884 80.7887 32.8905 79.8477 34.304 79.1376C35.7289 78.4271 37.361 78.0316 39.2001 77.9513C41.7886 77.8383 43.8455 78.3172 45.3709 79.3881C46.9077 80.4584 48.029 81.9109 48.7347 83.7455ZM66.4187 103.857C63.8984 103.967 61.7 103.506 59.8236 102.473C57.9581 101.428 56.4876 99.9227 55.4122 97.9564C54.3476 95.9782 53.7568 93.6495 53.6399 90.9702C53.5229 88.291 53.908 85.9083 54.7951 83.8221C55.6931 81.7242 56.9969 80.0634 58.7065 78.84C60.427 77.6047 62.4679 76.9354 64.8293 76.8323C66.1916 76.7729 67.5468 76.9412 68.8949 77.3373C70.2431 77.7334 71.4844 78.4186 72.6188 79.3927C73.7528 80.3555 74.6798 81.6573 75.3998 83.2979C76.1197 84.9385 76.533 86.9792 76.6396 89.4201L76.7139 91.123L56.5513 92.0033L56.3997 88.5294L72.4753 87.8275C72.4108 86.3516 72.0581 85.0476 71.4172 83.9154C70.7877 82.7827 69.919 81.9049 68.8113 81.2822C67.7149 80.659 66.4401 80.3791 64.9869 80.4425C63.3862 80.5124 62.0185 80.9703 60.8838 81.816C59.76 82.6499 58.9134 83.7106 58.3441 84.998C57.7747 86.2854 57.5215 87.65 57.5844 89.0918L57.6855 91.4078C57.7718 93.3832 58.1855 95.0429 58.9266 96.3868C59.6786 97.7189 60.6833 98.7158 61.9406 99.3775C63.1975 100.028 64.6376 100.318 66.2611 100.247C67.3169 100.201 68.2641 100.011 69.1026 99.6791C69.9521 99.3349 70.6758 98.8483 71.274 98.2193C71.8716 97.579 72.3209 96.7973 72.6218 95.8742L76.5521 96.7945C76.2009 98.1293 75.5646 99.3173 74.6432 100.358C73.7214 101.388 72.563 102.212 71.1682 102.831C69.7729 103.437 68.1897 103.78 66.4187 103.857ZM85.9516 86.6931L86.6386 102.428L82.6197 102.604L81.4776 76.4467L85.3603 76.2772L85.5387 80.3642L85.8793 80.3493C86.4344 78.9943 87.3187 77.8865 88.5323 77.0259C89.7455 76.154 91.3397 75.6749 93.3151 75.5886C95.0861 75.5113 96.6517 75.8069 98.0117 76.4755C99.3712 77.1328 100.452 78.1775 101.254 79.6098C102.055 81.0308 102.504 82.8538 102.602 85.079L103.327 101.699L99.3083 101.875L98.5945 85.5269C98.5048 83.472 97.9014 81.8946 96.7841 80.7945C95.6664 79.6831 94.1766 79.1681 92.3147 79.2494C91.0319 79.3054 89.8974 79.6336 88.9113 80.234C87.9365 80.8339 87.1829 81.6801 86.6505 82.7725C86.1181 83.865 85.8851 85.1718 85.9516 86.6931ZM86.4496 73.0903L83.3103 73.0908C83.2344 71.3539 83.6663 69.9132 84.6059 68.7688C85.5564 67.6126 86.7639 67.0026 88.2284 66.9386C88.8755 66.9104 89.4538 66.9989 89.9632 67.2041C90.4722 67.398 90.9599 67.627 91.4264 67.891C91.8929 68.1549 92.3695 68.3901 92.8563 68.5963C93.3538 68.7907 93.9092 68.8745 94.5222 68.8477C95.1693 68.8195 95.7034 68.5459 96.1243 68.0271C96.5561 67.4964 96.7564 66.8734 96.7252 66.1582L99.8023 66.2968C99.8797 68.0679 99.4416 69.4974 98.4882 70.5855C97.5461 71.6731 96.3428 72.2488 94.8782 72.3128C94.0949 72.347 93.4431 72.2674 92.9228 72.074C92.402 71.8692 91.9367 71.6336 91.527 71.3671C91.1173 71.1007 90.6863 70.8693 90.2341 70.6729C89.7814 70.4652 89.2315 70.3754 88.5844 70.4037C87.9373 70.4319 87.4092 70.7109 87.0001 71.2406C86.6019 71.7585 86.4184 72.375 86.4496 73.0903ZM120.602 101.491C118.24 101.594 116.144 101.123 114.313 100.077C112.492 99.0301 111.039 97.5182 109.951 95.541C108.875 93.5634 108.279 91.2235 108.161 88.5216C108.042 85.7969 108.432 83.3969 109.331 81.3216C110.241 79.2459 111.557 77.6073 113.279 76.4061C115.012 75.2043 117.06 74.5519 119.421 74.4488C121.782 74.3457 123.873 74.8175 125.693 75.8641C127.525 76.9102 128.979 78.4277 130.055 80.4168C131.143 82.4053 131.746 84.7619 131.865 87.4866C131.983 90.1886 131.587 92.5718 130.676 94.6362C129.777 96.7001 128.46 98.333 126.727 99.5347C125.005 100.736 122.963 101.388 120.602 101.491ZM120.444 97.881C122.238 97.8027 123.694 97.2785 124.812 96.3084C125.929 95.3382 126.734 94.0917 127.225 92.5689C127.715 91.046 127.923 89.4104 127.846 87.6621C127.77 85.9137 127.421 84.2967 126.799 82.8111C126.176 81.3255 125.266 80.1425 124.067 79.2621C122.869 78.3817 121.372 77.9807 119.579 78.059C117.785 78.1373 116.329 78.6672 115.212 79.6487C114.095 80.6302 113.291 81.8881 112.801 83.4223C112.31 84.9565 112.103 86.5978 112.179 88.3461C112.256 90.0944 112.605 91.7057 113.227 93.18C113.848 94.6543 114.758 95.826 115.956 96.695C117.154 97.564 118.65 97.9594 120.444 97.881ZM155.487 79.0846L151.922 80.264C151.668 79.6722 151.308 79.1021 150.84 78.5538C150.384 77.9937 149.773 77.5426 149.007 77.2007C148.241 76.8588 147.274 76.7133 146.104 76.7644C144.504 76.8343 143.186 77.2615 142.151 78.046C141.127 78.8187 140.639 79.767 140.688 80.8909C140.732 81.89 141.13 82.6631 141.882 83.2104C142.633 83.7577 143.79 84.1906 145.351 84.5092L149.275 85.2933C151.638 85.7588 153.419 86.5512 154.617 87.6705C155.814 88.7784 156.452 90.2463 156.532 92.0741C156.598 93.5727 156.225 94.9311 155.413 96.1495C154.614 97.3674 153.462 98.3504 151.959 99.0984C150.456 99.8465 148.689 100.265 146.657 100.354C143.989 100.47 141.755 99.9876 139.956 98.9059C138.158 97.8242 136.977 96.181 136.414 93.9762L140.187 92.856C140.612 94.2479 141.345 95.2737 142.386 95.9335C143.438 96.5927 144.788 96.8864 146.434 96.8145C148.307 96.7328 149.777 96.2705 150.844 95.4277C151.921 94.5731 152.435 93.5838 152.386 92.4599C152.346 91.5516 151.995 90.8049 151.333 90.2196C150.67 89.6229 149.673 89.2001 148.343 88.9511L143.939 88.1197C141.518 87.6566 139.72 86.8536 138.544 85.7106C137.379 84.5558 136.757 83.0758 136.678 81.2707C136.614 79.7949 136.971 78.4712 137.751 77.2997C138.541 76.1278 139.643 75.1868 141.057 74.4767C142.482 73.7661 144.114 73.3707 145.953 73.2904C148.541 73.1774 150.598 73.6563 152.124 74.7272C153.66 75.7975 154.782 77.25 155.487 79.0846Z" fill="black"/>
<path d="M190.325 63.8688L195.557 75.952L208.05 80.1111L195.967 85.3433L191.808 97.8365L186.575 85.7533L174.082 81.5942L186.165 76.362L190.325 63.8688Z" fill="#FFD600"/>
<path d="M229.431 96.1937L225.003 96.3871L236.286 60.9521L240.646 60.7617L254.975 95.0785L250.547 95.2718L238.843 66.3684L238.571 66.3803L229.431 96.1937ZM230.471 82.499L248.317 81.7198L248.481 85.4662L230.634 86.2454L230.471 82.499ZM276.784 73.7887L273.219 74.9681C272.965 74.3763 272.605 73.8063 272.137 73.2579C271.681 72.6978 271.07 72.2467 270.304 71.9048C269.538 71.5629 268.571 71.4175 267.401 71.4685C265.801 71.5384 264.483 71.9656 263.448 72.7501C262.424 73.5228 261.936 74.4711 261.985 75.595C262.029 76.5941 262.427 77.3672 263.179 77.9145C263.93 78.4618 265.087 78.8947 266.648 79.2133L270.572 79.9974C272.935 80.463 274.716 81.2554 275.914 82.3746C277.111 83.4826 277.749 84.9504 277.829 86.7782C277.895 88.2768 277.522 89.6353 276.71 90.8536C275.91 92.0715 274.759 93.0545 273.256 93.8026C271.753 94.5506 269.986 94.9691 267.954 95.0578C265.286 95.1743 263.052 94.6917 261.253 93.61C259.455 92.5284 258.274 90.8851 257.711 88.6803L261.484 87.5601C261.909 88.952 262.642 89.9778 263.683 90.6376C264.735 91.2969 266.085 91.5905 267.731 91.5187C269.604 91.4369 271.074 90.9746 272.14 90.1318C273.218 89.2772 273.732 88.2879 273.683 87.164C273.643 86.2558 273.292 85.509 272.63 84.9237C271.967 84.3271 270.97 83.9042 269.64 83.6552L265.236 82.8238C262.815 82.3607 261.017 81.5577 259.841 80.4147C258.676 79.2599 258.054 77.78 257.975 75.9749C257.911 74.499 258.268 73.1753 259.048 72.0039C259.838 70.8319 260.94 69.8909 262.354 69.1808C263.779 68.4703 265.411 68.0748 267.25 67.9945C269.838 67.8815 271.895 68.3604 273.421 69.4313C274.957 70.5016 276.079 71.9541 276.784 73.7887ZM294.468 93.9001C291.948 94.0102 289.75 93.5488 287.873 92.516C286.008 91.4714 284.537 89.9659 283.462 87.9996C282.397 86.0214 281.806 83.6927 281.689 81.0134C281.573 78.3342 281.958 75.9515 282.845 73.8653C283.743 71.7674 285.046 70.1066 286.756 68.8832C288.477 67.6479 290.518 66.9786 292.879 66.8755C294.241 66.8161 295.596 66.9844 296.945 67.3805C298.293 67.7766 299.534 68.4618 300.668 69.4359C301.802 70.3988 302.729 71.7005 303.449 73.3411C304.169 74.9817 304.583 77.0224 304.689 79.4633L304.764 81.1662L284.601 82.0465L284.449 78.5726L300.525 77.8707C300.46 76.3948 300.108 75.0908 299.467 73.9586C298.837 72.8259 297.969 71.9481 296.861 71.3254C295.764 70.7022 294.49 70.4223 293.037 70.4857C291.436 70.5556 290.068 71.0135 288.933 71.8592C287.81 72.6931 286.963 73.7538 286.394 75.0412C285.824 76.3286 285.571 77.6932 285.634 79.1351L285.735 81.451C285.821 83.4264 286.235 85.0861 286.976 86.43C287.728 87.7621 288.733 88.759 289.99 89.4207C291.247 90.0711 292.687 90.3608 294.311 90.2899C295.366 90.2438 296.314 90.0546 297.152 89.7223C298.002 89.3781 298.725 88.8915 299.324 88.2625C299.921 87.6222 300.371 86.8405 300.671 85.9174L304.602 86.8378C304.251 88.1725 303.614 89.3605 302.693 90.4017C301.771 91.4315 300.613 92.2555 299.218 92.8738C297.823 93.4807 296.239 93.8228 294.468 93.9001ZM328.311 71.539L324.745 72.7184C324.492 72.1266 324.131 71.5566 323.664 71.0082C323.207 70.4481 322.596 69.997 321.83 69.6551C321.065 69.3132 320.097 69.1678 318.928 69.2188C317.327 69.2887 316.009 69.7159 314.974 70.5004C313.95 71.2731 313.463 72.2214 313.512 73.3453C313.556 74.3444 313.953 75.1176 314.705 75.6648C315.457 76.2121 316.613 76.645 318.174 76.9636L322.098 77.7477C324.462 78.2133 326.242 79.0057 327.44 80.1249C328.637 81.2329 329.276 82.7007 329.356 84.5285C329.421 86.0271 329.048 87.3856 328.237 88.6039C327.437 89.8218 326.286 90.8048 324.783 91.5529C323.28 92.301 321.512 92.7194 319.48 92.8081C316.812 92.9246 314.579 92.442 312.78 91.3603C310.981 90.2787 309.8 88.6354 309.238 86.4306L313.011 85.3104C313.435 86.7023 314.168 87.7281 315.209 88.3879C316.262 89.0472 317.611 89.3409 319.257 89.269C321.131 89.1872 322.6 88.7249 323.667 87.8821C324.744 87.0275 325.259 86.0382 325.209 84.9143C325.17 84.0061 324.819 83.2593 324.156 82.674C323.493 82.0774 322.497 81.6545 321.166 81.4055L316.762 80.5741C314.342 80.111 312.544 79.308 311.368 78.165C310.203 77.0102 309.581 75.5303 309.502 73.7252C309.437 72.2493 309.795 70.9256 310.574 69.7542C311.365 68.5822 312.467 67.6412 313.88 66.9311C315.305 66.2206 316.937 65.8251 318.776 65.7448C321.365 65.6318 323.422 66.1107 324.947 67.1816C326.484 68.2519 327.605 69.7044 328.311 71.539ZM345.654 91.6653C343.293 91.7684 341.196 91.2969 339.365 90.2508C337.545 89.2042 336.091 87.6923 335.004 85.7151C333.928 83.7374 333.331 81.3976 333.213 78.6956C333.094 75.971 333.484 73.571 334.383 71.4957C335.293 69.4199 336.61 67.7814 338.332 66.5802C340.065 65.3784 342.112 64.726 344.474 64.6229C346.835 64.5198 348.926 64.9915 350.746 66.0381C352.577 67.0842 354.031 68.6018 355.108 70.5908C356.195 72.5794 356.799 74.936 356.918 77.6607C357.036 80.3626 356.639 82.7458 355.728 84.8103C354.829 86.8742 353.513 88.507 351.779 89.7088C350.057 90.91 348.016 91.5622 345.654 91.6653ZM345.497 88.0551C347.29 87.9768 348.746 87.4526 349.864 86.4824C350.982 85.5123 351.786 84.2658 352.277 82.7429C352.768 81.2201 352.975 79.5845 352.899 77.8361C352.823 76.0878 352.473 74.4708 351.851 72.9852C351.229 71.4995 350.318 70.3165 349.12 69.4362C347.921 68.5558 346.425 68.1548 344.631 68.2331C342.837 68.3114 341.382 68.8413 340.265 69.8228C339.147 70.8043 338.343 72.0621 337.853 73.5963C337.363 75.1306 337.156 76.7718 337.232 78.5202C337.308 80.2685 337.657 81.8798 338.279 83.3541C338.901 84.8284 339.811 86 341.009 86.869C342.207 87.7381 343.703 88.1334 345.497 88.0551ZM362.898 90.3664L361.756 64.2095L365.639 64.04L365.811 67.9908L366.084 67.9789C366.504 66.6639 367.321 65.5761 368.535 64.7155C369.748 63.8549 371.139 63.3904 372.705 63.322C373 63.3091 373.37 63.2987 373.813 63.2907C374.256 63.2827 374.592 63.2851 374.82 63.2979L374.998 67.3849C374.861 67.3568 374.546 67.3194 374.055 67.2726C373.575 67.2139 373.068 67.1962 372.534 67.2195C371.263 67.2751 370.139 67.5914 369.163 68.1686C368.198 68.734 367.447 69.4948 366.908 70.451C366.381 71.3953 366.143 72.4579 366.194 73.6386L366.917 90.191L362.898 90.3664ZM380.021 89.6188L378.879 63.4619L382.898 63.2865L384.04 89.4434L380.021 89.6188ZM378.929 59.9109L382.739 51.8279L387.439 51.6227L382.471 59.7563L378.929 59.9109ZM398.406 89.4304C396.748 89.5027 395.23 89.2562 393.852 88.6908C392.473 88.114 391.361 87.247 390.514 86.0896C389.667 84.9209 389.206 83.4851 389.132 81.7822C389.066 80.2836 389.308 79.056 389.858 78.0992C390.407 77.1312 391.164 76.3588 392.128 75.7821C393.093 75.2054 394.165 74.7605 395.346 74.4473C396.537 74.1223 397.737 73.8538 398.945 73.6418C400.525 73.3681 401.807 73.1586 402.79 73.0133C403.785 72.8561 404.503 72.6371 404.946 72.3561C405.4 72.0747 405.613 71.6104 405.584 70.9633L405.578 70.8271C405.505 69.1468 404.988 67.8613 404.028 66.9706C403.079 66.0793 401.679 65.674 399.829 65.7548C397.91 65.8386 396.424 66.3243 395.371 67.212C394.318 68.0997 393.591 69.0301 393.19 70.003L389.316 68.8072C389.928 67.1881 390.782 65.911 391.878 64.9759C392.986 64.029 394.207 63.35 395.543 62.9391C396.889 62.5163 398.221 62.2762 399.538 62.2187C400.378 62.182 401.348 62.2421 402.446 62.3988C403.556 62.5438 404.635 62.9004 405.684 63.4689C406.744 64.0368 407.641 64.9247 408.376 66.1324C409.112 67.3401 409.524 68.9827 409.615 71.0603L410.368 88.2939L406.349 88.4693L406.194 84.9273L405.99 84.9362C405.742 85.5157 405.314 86.1429 404.707 86.8178C404.099 87.4927 403.278 88.0802 402.242 88.5804C401.206 89.0806 399.927 89.3639 398.406 89.4304ZM398.861 85.7934C400.451 85.724 401.777 85.3533 402.839 84.6813C403.913 84.0088 404.707 83.1666 405.22 82.1546C405.744 81.1421 405.983 80.091 405.935 79.0011L405.775 75.3228C405.613 75.5346 405.247 75.7382 404.675 75.9338C404.115 76.1175 403.462 76.2882 402.719 76.4458C401.986 76.5915 401.269 76.7252 400.569 76.8467C399.88 76.9565 399.321 77.0491 398.892 77.1247C397.854 77.3065 396.887 77.5705 395.992 77.9167C395.108 78.2511 394.401 78.7312 393.871 79.3572C393.352 79.9713 393.115 80.7893 393.159 81.811C393.22 83.2074 393.783 84.2407 394.847 84.9108C395.923 85.5691 397.26 85.8633 398.861 85.7934ZM434.625 66.8972L431.06 68.0766C430.806 67.4848 430.446 66.9148 429.978 66.3665C429.522 65.8063 428.91 65.3553 428.145 65.0133C427.379 64.6714 426.412 64.526 425.242 64.577C423.642 64.6469 422.324 65.0741 421.289 65.8586C420.265 66.6313 419.777 67.5796 419.826 68.7036C419.87 69.7026 420.268 70.4758 421.019 71.023C421.771 71.5703 422.928 72.0032 424.489 72.3218L428.413 73.1059C430.776 73.5715 432.557 74.3639 433.755 75.4832C434.952 76.5911 435.59 78.0589 435.67 79.8867C435.735 81.3853 435.363 82.7438 434.551 83.9622C433.751 85.18 432.6 86.163 431.097 86.9111C429.594 87.6592 427.827 88.0776 425.795 88.1663C423.127 88.2828 420.893 87.8002 419.094 86.7185C417.295 85.6369 416.115 83.9936 415.552 81.7888L419.325 80.6686C419.75 82.0605 420.483 83.0863 421.524 83.7461C422.576 84.4054 423.926 84.6991 425.572 84.6272C427.445 84.5454 428.915 84.0831 429.981 83.2403C431.059 82.3857 431.573 81.3964 431.524 80.2725C431.484 79.3643 431.133 78.6175 430.471 78.0322C429.808 77.4356 428.811 77.0127 427.481 76.7637L423.076 75.9323C420.656 75.4693 418.858 74.6662 417.682 73.5233C416.517 72.3684 415.895 70.8885 415.816 69.0834C415.752 67.6075 416.109 66.2838 416.888 65.1124C417.679 63.9404 418.781 62.9994 420.195 62.2893C421.619 61.5788 423.251 61.1834 425.091 61.1031C427.679 60.99 429.736 61.469 431.261 62.5398C432.798 63.6102 433.919 65.0626 434.625 66.8972Z" fill="black"/>
<path d="M469.059 51.6989L474.291 63.782L486.784 67.9412L474.701 73.1734L470.542 85.6665L465.31 73.5834L452.817 69.4242L464.9 64.1921L469.059 51.6989Z" fill="#FFD600"/>
<path d="M528.099 48.2111L532.323 48.0267L533.331 71.1184C533.435 73.5025 532.966 75.6557 531.924 77.578C530.893 79.4884 529.384 81.0272 527.399 82.1945C525.414 83.3504 523.053 83.988 520.317 84.1075C517.581 84.227 515.173 83.7975 513.095 82.819C511.015 81.8292 509.373 80.4279 508.168 78.6152C506.974 76.7905 506.324 74.6861 506.22 72.3021L505.212 49.2104L509.435 49.026L510.429 71.7771C510.503 73.48 510.944 74.9792 511.751 76.2748C512.558 77.559 513.67 78.5512 515.089 79.2514C516.518 79.9397 518.203 80.2415 520.144 80.1567C522.086 80.072 523.738 79.6244 525.102 78.8142C526.465 77.9926 527.487 76.9072 528.167 75.5581C528.859 74.1971 529.167 72.6651 529.093 70.9622L528.099 48.2111ZM564.354 57.5477C563.929 56.4174 563.39 55.4116 562.738 54.5301C562.096 53.6368 561.341 52.8849 560.472 52.2745C559.615 51.6636 558.652 51.2109 557.581 50.9164C556.51 50.6219 555.345 50.5022 554.085 50.5572C552.018 50.6474 550.163 51.263 548.518 52.404C546.873 53.5451 545.596 55.1762 544.688 57.2973C543.78 59.4185 543.391 61.989 543.523 65.0089C543.655 68.0287 544.271 70.5554 545.373 72.5888C546.474 74.6223 547.91 76.1349 549.683 77.1268C551.455 78.1186 553.419 78.5674 555.576 78.4732C557.575 78.386 559.316 77.8834 560.8 76.9655C562.295 76.0358 563.434 74.769 564.217 73.1652C565.011 71.5494 565.361 69.6744 565.268 67.5401L566.574 67.756L556.084 68.214L555.92 64.4676L569.203 63.8877L569.367 67.6341C569.492 70.5064 568.988 73.0308 567.855 75.2073C566.733 77.3833 565.124 79.1028 563.03 80.3658C560.946 81.617 558.519 82.3031 555.749 82.424C552.661 82.5588 549.916 81.9507 547.514 80.5997C545.123 79.2481 543.216 77.2612 541.794 74.6389C540.383 72.0162 539.597 68.8657 539.436 65.1873C539.316 62.4286 539.576 59.9319 540.218 57.6972C540.871 55.4507 541.844 53.5201 543.139 51.9052C544.433 50.2904 545.993 49.028 547.819 48.1179C549.645 47.2079 551.676 46.704 553.912 46.6064C555.751 46.5261 557.478 46.7294 559.091 47.2163C560.716 47.6913 562.175 48.4068 563.468 49.3627C564.771 50.3067 565.874 51.4586 566.775 52.8183C567.675 54.1667 568.322 55.6797 568.713 57.3574L564.354 57.5477ZM603.496 55.8387L599.272 56.0231C598.97 54.8193 598.486 53.7712 597.821 52.8789C597.168 51.9861 596.385 51.2468 595.472 50.6611C594.571 50.0635 593.579 49.629 592.498 49.3577C591.417 49.0865 590.297 48.9761 589.139 49.0267C587.028 49.1188 585.138 49.736 583.471 50.878C581.814 52.0195 580.526 53.6511 579.606 55.7728C578.698 57.8939 578.31 60.4645 578.442 63.4843C578.574 66.5042 579.184 69.0311 580.274 71.065C581.375 73.0985 582.801 74.6116 584.55 75.6044C586.311 76.5967 588.247 77.0468 590.359 76.9546C591.517 76.904 592.622 76.6965 593.676 76.332C594.729 75.9676 595.679 75.4541 596.526 74.7915C597.384 74.1171 598.099 73.3067 598.672 72.3603C599.256 71.4021 599.646 70.3159 599.844 69.1016L604.067 68.9172C603.827 70.7135 603.317 72.3338 602.539 73.7782C601.76 75.2227 600.768 76.466 599.562 77.5082C598.356 78.5391 596.986 79.3439 595.453 79.9227C593.932 80.501 592.291 80.8285 590.531 80.9054C587.557 81.0352 584.88 80.4242 582.501 79.0721C580.121 77.7201 578.209 75.7334 576.764 73.1121C575.318 70.4909 574.515 67.3411 574.355 63.6628C574.194 59.9844 574.719 56.7767 575.931 54.0394C577.142 51.3021 578.874 49.1564 581.127 47.6021C583.379 46.0478 585.993 45.2057 588.967 45.0759C590.727 44.999 592.39 45.1824 593.956 45.6258C595.534 46.0688 596.968 46.7569 598.26 47.69C599.552 48.6119 600.648 49.7583 601.55 51.1294C602.451 52.4891 603.1 54.0589 603.496 55.8387Z" fill="black"/>
<path d="M637.898 44.3273L643.13 56.4105L655.623 60.5696L643.54 65.8018L639.381 78.295L634.149 66.2118L621.656 62.0527L633.739 56.8205L637.898 44.3273Z" fill="#FFD600"/>
<path d="M674.051 41.8388L679.092 41.6188L692.208 70.051L692.617 70.0331L703.205 40.5659L708.246 40.3459L709.769 75.2217L705.818 75.3942L704.661 48.8967L704.32 48.9116L694.579 75.8849L690.764 76.0515L678.708 50.0299L678.368 50.0447L679.525 76.5422L675.574 76.7147L674.051 41.8388ZM727.963 74.9733C725.443 75.0834 723.244 74.622 721.368 73.5892C719.502 72.5446 718.032 71.0391 716.956 69.0728C715.892 67.0946 715.301 64.7659 715.184 62.0866C715.067 59.4074 715.452 57.0247 716.339 54.9385C717.237 52.8406 718.541 51.1798 720.251 49.9564C721.971 48.7211 724.012 48.0519 726.373 47.9488C727.736 47.8893 729.091 48.0576 730.439 48.4537C731.787 48.8498 733.028 49.535 734.163 50.5091C735.297 51.472 736.224 52.7737 736.944 54.4143C737.664 56.0549 738.077 58.0956 738.184 60.5365L738.258 62.2394L718.095 63.1197L717.944 59.6458L734.019 58.9439C733.955 57.468 733.602 56.164 732.961 55.0318C732.332 53.8991 731.463 53.0213 730.355 52.3986C729.259 51.7754 727.984 51.4955 726.531 51.5589C724.93 51.6288 723.563 52.0867 722.428 52.9324C721.304 53.7663 720.458 54.827 719.888 56.1144C719.319 57.4018 719.066 58.7664 719.129 60.2083L719.23 62.5242C719.316 64.4996 719.73 66.1593 720.471 67.5032C721.223 68.8353 722.227 69.8322 723.485 70.4939C724.742 71.1443 726.182 71.434 727.805 71.3631C728.861 71.317 729.808 71.1278 730.647 70.7955C731.496 70.4513 732.22 69.9647 732.818 69.3357C733.416 68.6954 733.865 67.9137 734.166 66.9906L738.096 67.911C737.745 69.2457 737.109 70.4337 736.187 71.4749C735.266 72.5047 734.107 73.3287 732.712 73.947C731.317 74.5539 729.734 74.896 727.963 74.9733ZM747.496 57.8095L748.183 73.5445L744.164 73.72L743.022 47.5631L746.904 47.3936L747.083 51.4806L747.423 51.4657C747.979 50.1107 748.863 49.0029 750.076 48.1423C751.29 47.2704 752.884 46.7913 754.859 46.705C756.63 46.6277 758.196 46.9233 759.556 47.5919C760.915 48.2492 761.996 49.2939 762.798 50.7262C763.599 52.1472 764.049 53.9702 764.146 56.1954L764.871 72.8159L760.852 72.9914L760.139 56.6433C760.049 54.5884 759.445 53.011 758.328 51.9109C757.211 50.7996 755.721 50.2845 753.859 50.3658C752.576 50.4218 751.442 50.75 750.455 51.3504C749.481 51.9503 748.727 52.7965 748.195 53.8889C747.662 54.9814 747.429 56.2882 747.496 57.8095ZM781.729 45.8731L781.878 49.2789L768.323 49.8708L768.174 46.4649L781.729 45.8731ZM771.851 40.0257L775.87 39.8502L776.959 64.781C777.008 65.9163 777.21 66.7606 777.564 67.3138C777.929 67.8552 778.377 68.2111 778.907 68.3812C779.449 68.5396 780.015 68.6059 780.605 68.5801C781.048 68.5608 781.41 68.5222 781.692 68.4644C781.973 68.3952 782.198 68.3399 782.367 68.2984L783.342 71.8729C783.074 71.987 782.698 72.1058 782.215 72.2293C781.731 72.3641 781.115 72.4479 780.366 72.4806C779.231 72.5302 778.107 72.3347 776.996 71.8941C775.896 71.453 774.967 70.7486 774.208 69.7807C773.461 68.8124 773.054 67.5676 772.987 66.0463L771.851 40.0257ZM798.567 71.8907C796.205 71.9938 794.109 71.5223 792.277 70.4762C790.457 69.4296 789.003 67.9177 787.916 65.9405C786.84 63.9628 786.243 61.623 786.125 58.921C786.006 56.1964 786.396 53.7964 787.295 51.7211C788.206 49.6453 789.522 48.0068 791.244 46.8056C792.977 45.6038 795.024 44.9514 797.386 44.8483C799.747 44.7452 801.838 45.2169 803.658 46.2635C805.49 47.3096 806.943 48.8272 808.02 50.8162C809.108 52.8048 809.711 55.1614 809.83 57.8861C809.948 60.588 809.552 62.9712 808.641 65.0357C807.741 67.0996 806.425 68.7324 804.692 69.9342C802.97 71.1354 800.928 71.7876 798.567 71.8907ZM798.409 68.2805C800.203 68.2022 801.658 67.678 802.776 66.7078C803.894 65.7377 804.698 64.4912 805.189 62.9683C805.68 61.4455 805.887 59.8099 805.811 58.0615C805.735 56.3132 805.386 54.6962 804.763 53.2106C804.141 51.7249 803.231 50.5419 802.032 49.6616C800.833 48.7812 799.337 48.3802 797.543 48.4585C795.75 48.5368 794.294 49.0667 793.177 50.0482C792.059 51.0297 791.256 52.2875 790.765 53.8217C790.275 55.356 790.068 56.9972 790.144 58.7456C790.221 60.4939 790.57 62.1052 791.191 63.5795C791.813 65.0538 792.723 66.2254 793.921 67.0945C795.119 67.9635 796.615 68.3588 798.409 68.2805ZM815.811 70.5918L814.669 44.4349L818.551 44.2654L818.724 48.2162L818.996 48.2043C819.416 46.8893 820.233 45.8015 821.447 44.9409C822.661 44.0803 824.051 43.6158 825.617 43.5474C825.913 43.5345 826.282 43.5241 826.725 43.5161C827.168 43.5081 827.504 43.5105 827.732 43.5233L827.911 47.6104C827.773 47.5822 827.458 47.5448 826.967 47.498C826.487 47.4393 825.98 47.4217 825.446 47.445C824.175 47.5005 823.051 47.8168 822.076 48.394C821.111 48.9594 820.359 49.7202 819.821 50.6764C819.293 51.6207 819.055 52.6833 819.107 53.864L819.829 70.4164L815.811 70.5918ZM832.934 69.8442L831.792 43.6873L835.81 43.5119L836.953 69.6688L832.934 69.8442ZM831.841 40.1363L835.651 32.0533L840.351 31.8481L835.383 39.9817L831.841 40.1363ZM851.318 69.6558C849.661 69.7281 848.143 69.4816 846.764 68.9162C845.386 68.3394 844.273 67.4724 843.426 66.315C842.579 65.1463 842.118 63.7105 842.044 62.0076C841.978 60.509 842.221 59.2814 842.77 58.3247C843.319 57.3566 844.076 56.5842 845.041 56.0075C846.005 55.4308 847.078 54.9859 848.258 54.6727C849.45 54.3477 850.649 54.0792 851.857 53.8672C853.438 53.5935 854.719 53.384 855.703 53.2387C856.697 53.0815 857.415 52.8625 857.858 52.5815C858.312 52.3001 858.525 51.8358 858.497 51.1887L858.491 51.0525C858.417 49.3722 857.901 48.0867 856.94 47.196C855.991 46.3047 854.592 45.8995 852.741 45.9802C850.823 46.064 849.337 46.5497 848.284 47.4374C847.23 48.3251 846.503 49.2555 846.102 50.2284L842.228 49.0326C842.84 47.4135 843.694 46.1364 844.791 45.2013C845.898 44.2544 847.12 43.5754 848.455 43.1645C849.802 42.7417 851.133 42.5016 852.45 42.4441C853.29 42.4074 854.26 42.4675 855.359 42.6242C856.468 42.7692 857.547 43.1258 858.596 43.6943C859.656 44.2622 860.553 45.1501 861.289 46.3578C862.024 47.5655 862.437 49.2081 862.527 51.2857L863.28 68.5193L859.261 68.6948L859.106 65.1527L858.902 65.1616C858.654 65.7411 858.227 66.3683 857.619 67.0432C857.012 67.7181 856.19 68.3056 855.154 68.8058C854.118 69.306 852.839 69.5893 851.318 69.6558ZM851.773 66.0188C853.363 65.9494 854.689 65.5787 855.752 64.9067C856.825 64.2342 857.619 63.392 858.132 62.38C858.657 61.3675 858.895 60.3164 858.848 59.2265L858.687 55.5482C858.526 55.76 858.159 55.9636 857.588 56.1592C857.027 56.3429 856.375 56.5136 855.631 56.6712C854.898 56.8169 854.181 56.9506 853.481 57.0722C852.792 57.1819 852.233 57.2745 851.804 57.3501C850.766 57.5319 849.799 57.796 848.904 58.1421C848.02 58.4765 847.313 58.9566 846.783 59.5826C846.264 60.1968 846.027 61.0147 846.072 62.0365C846.133 63.4328 846.695 64.4661 847.76 65.1362C848.835 65.7945 850.173 66.0887 851.773 66.0188ZM887.537 47.1226L883.972 48.302C883.719 47.7102 883.358 47.1402 882.891 46.5919C882.434 46.0317 881.823 45.5807 881.057 45.2387C880.291 44.8968 879.324 44.7514 878.155 44.8024C876.554 44.8723 875.236 45.2995 874.201 46.0841C873.177 46.8567 872.689 47.805 872.739 48.929C872.782 49.928 873.18 50.7012 873.932 51.2484C874.684 51.7957 875.84 52.2286 877.401 52.5472L881.325 53.3313C883.689 53.7969 885.469 54.5893 886.667 55.7086C887.864 56.8165 888.503 58.2843 888.582 60.1121C888.648 61.6107 888.275 62.9692 887.464 64.1876C886.664 65.4054 885.512 66.3884 884.009 67.1365C882.506 67.8846 880.739 68.303 878.707 68.3917C876.039 68.5082 873.805 68.0256 872.007 66.9439C870.208 65.8623 869.027 64.2191 868.464 62.0142L872.237 60.894C872.662 62.2859 873.395 63.3118 874.436 63.9715C875.489 64.6308 876.838 64.9245 878.484 64.8526C880.357 64.7708 881.827 64.3085 882.894 63.4658C883.971 62.6111 884.485 61.6218 884.436 60.4979C884.396 59.5897 884.045 58.8429 883.383 58.2576C882.72 57.661 881.723 57.2382 880.393 56.9891L875.989 56.1577C873.569 55.6947 871.77 54.8916 870.594 53.7487C869.429 52.5938 868.807 51.1139 868.729 49.3088C868.664 47.8329 869.021 46.5093 869.801 45.3378C870.591 44.1658 871.693 43.2248 873.107 42.5147C874.532 41.8042 876.164 41.4088 878.003 41.3285C880.591 41.2155 882.648 41.6944 884.174 42.7652C885.711 43.8356 886.832 45.288 887.537 47.1226Z" fill="black"/>
<path d="M922.627 31.8957L927.859 43.9788L940.352 48.138L928.269 53.3701L924.11 65.8633L918.878 53.7802L906.385 49.621L918.468 44.3888L922.627 31.8957Z" fill="#FFD600"/>
<path d="M987.32 39.0806L983.097 39.265C982.794 38.0611 982.31 37.0131 981.646 36.1207C980.993 35.2279 980.21 34.4886 979.297 33.9029C978.395 33.3053 977.403 32.8709 976.322 32.5996C975.241 32.3283 974.122 32.2179 972.964 32.2685C970.852 32.3607 968.963 32.9778 967.295 34.1198C965.638 35.2613 964.35 36.8929 963.431 39.0146C962.522 41.1358 962.134 43.7063 962.266 46.7262C962.398 49.746 963.009 52.2729 964.098 54.3069C965.2 56.3403 966.625 57.8534 968.374 58.8463C970.135 59.8386 972.072 60.2886 974.183 60.1964C975.341 60.1459 976.447 59.9384 977.5 59.5739C978.553 59.2094 979.503 58.6959 980.35 58.0333C981.208 57.3589 981.923 56.5485 982.496 55.6022C983.08 54.644 983.471 53.5577 983.668 52.3434L987.891 52.159C987.651 53.9553 987.142 55.5757 986.363 57.0201C985.584 58.4645 984.592 59.7078 983.387 60.7501C982.18 61.7809 980.811 62.5858 979.278 63.1645C977.756 63.7428 976.115 64.0704 974.356 64.1472C971.381 64.2771 968.704 63.666 966.325 62.314C963.945 60.9619 962.033 58.9753 960.588 56.354C959.143 53.7327 958.34 50.5829 958.179 46.9046C958.018 43.2263 958.544 40.0185 959.755 37.2812C960.966 34.544 962.698 32.3982 964.951 30.8439C967.203 29.2897 969.817 28.4476 972.791 28.3177C974.551 28.2409 976.214 28.4242 977.78 28.8677C979.358 29.3106 980.793 29.9987 982.085 30.9319C983.376 31.8537 984.473 33.0001 985.374 34.3712C986.275 35.7309 986.924 37.3007 987.32 39.0806ZM1009.94 51.4009L1009.27 35.9384L1013.29 35.7629L1014.43 61.9198L1010.41 62.0953L1010.22 57.6677L1009.95 57.6796C1009.39 59.0346 1008.49 60.2059 1007.23 61.1933C1005.98 62.1694 1004.36 62.7005 1002.39 62.7868C1000.75 62.8582 999.285 62.564 997.982 61.9043C996.679 61.2332 995.632 60.187 994.842 58.7655C994.052 57.3327 993.608 55.5038 993.511 53.2786L992.785 36.6581L996.804 36.4826L997.518 52.8307C997.601 54.738 998.201 56.2359 999.318 57.3246C1000.45 58.4128 1001.84 58.9205 1003.51 58.8476C1004.51 58.804 1005.52 58.5042 1006.53 57.9482C1007.55 57.3917 1008.39 56.5702 1009.05 55.4837C1009.72 54.3966 1010.02 53.0357 1009.94 51.4009ZM1021.07 61.6298L1019.93 35.4729L1023.81 35.3034L1023.99 39.2542L1024.26 39.2423C1024.68 37.9272 1025.49 36.8394 1026.71 35.9789C1027.92 35.1183 1029.31 34.6538 1030.88 34.5854C1031.17 34.5725 1031.54 34.5621 1031.99 34.5541C1032.43 34.5461 1032.77 34.5485 1032.99 34.5613L1033.17 38.6483C1033.03 38.6202 1032.72 38.5828 1032.23 38.536C1031.75 38.4773 1031.24 38.4596 1030.71 38.4829C1029.44 38.5384 1028.31 38.8548 1027.34 39.432C1026.37 39.9974 1025.62 40.7581 1025.08 41.7144C1024.55 42.6587 1024.32 43.7212 1024.37 44.9019L1025.09 61.4544L1021.07 61.6298ZM1055.84 39.7744L1052.27 40.9538C1052.02 40.362 1051.66 39.792 1051.19 39.2437C1050.73 38.6835 1050.12 38.2325 1049.36 37.8905C1048.59 37.5486 1047.62 37.4032 1046.45 37.4542C1044.85 37.5241 1043.54 37.9513 1042.5 38.7358C1041.48 39.5085 1040.99 40.4568 1041.04 41.5808C1041.08 42.5798 1041.48 43.353 1042.23 43.9002C1042.98 44.4475 1044.14 44.8804 1045.7 45.199L1049.62 45.9831C1051.99 46.4487 1053.77 47.2411 1054.97 48.3603C1056.16 49.4683 1056.8 50.9361 1056.88 52.7639C1056.95 54.2625 1056.57 55.621 1055.76 56.8393C1054.96 58.0572 1053.81 59.0402 1052.31 59.7883C1050.81 60.5364 1049.04 60.9548 1047.01 61.0435C1044.34 61.16 1042.1 60.6774 1040.31 59.5957C1038.51 58.5141 1037.33 56.8708 1036.76 54.666L1040.54 53.5458C1040.96 54.9377 1041.69 55.9635 1042.74 56.6233C1043.79 57.2826 1045.14 57.5763 1046.78 57.5044C1048.66 57.4226 1050.13 56.9603 1051.19 56.1175C1052.27 55.2629 1052.78 54.2736 1052.74 53.1497C1052.7 52.2415 1052.34 51.4947 1051.68 50.9094C1051.02 50.3128 1050.02 49.8899 1048.69 49.6409L1044.29 48.8095C1041.87 48.3464 1040.07 47.5434 1038.89 46.4005C1037.73 45.2456 1037.11 43.7657 1037.03 41.9606C1036.96 40.4847 1037.32 39.161 1038.1 37.9896C1038.89 36.8176 1039.99 35.8766 1041.41 35.1665C1042.83 34.456 1044.46 34.0606 1046.3 33.9803C1048.89 33.8672 1050.95 34.3462 1052.47 35.417C1054.01 36.4873 1055.13 37.9398 1055.84 39.7744ZM1073.18 59.9007C1070.82 60.0038 1068.72 59.5323 1066.89 58.4862C1065.07 57.4396 1063.62 55.9277 1062.53 53.9505C1061.45 51.9728 1060.86 49.633 1060.74 46.931C1060.62 44.2064 1061.01 41.8064 1061.91 39.7311C1062.82 37.6553 1064.14 36.0168 1065.86 34.8156C1067.59 33.6138 1069.64 32.9614 1072 32.8583C1074.36 32.7552 1076.45 33.2269 1078.27 34.2735C1080.1 35.3197 1081.56 36.8372 1082.63 38.8263C1083.72 40.8148 1084.32 43.1714 1084.44 45.8961C1084.56 48.598 1084.16 50.9812 1083.25 53.0457C1082.35 55.1096 1081.04 56.7424 1079.3 57.9442C1077.58 59.1454 1075.54 59.7976 1073.18 59.9007ZM1073.02 56.2905C1074.82 56.2122 1076.27 55.688 1077.39 54.7178C1078.51 53.7477 1079.31 52.5012 1079.8 50.9783C1080.29 49.4555 1080.5 47.8199 1080.42 46.0715C1080.35 44.3232 1080 42.7062 1079.38 41.2206C1078.75 39.7349 1077.84 38.5519 1076.65 37.6716C1075.45 36.7912 1073.95 36.3902 1072.16 36.4685C1070.36 36.5468 1068.91 37.0767 1067.79 38.0582C1066.67 39.0397 1065.87 40.2975 1065.38 41.8317C1064.89 43.366 1064.68 45.0072 1064.76 46.7556C1064.83 48.5039 1065.18 50.1152 1065.8 51.5895C1066.43 53.0638 1067.34 54.2354 1068.53 55.1045C1069.73 55.9735 1071.23 56.3688 1073.02 56.2905ZM1108.07 37.4941L1104.5 38.6734C1104.25 38.0817 1103.89 37.5116 1103.42 36.9633C1102.96 36.4031 1102.35 35.9521 1101.59 35.6102C1100.82 35.2682 1099.85 35.1228 1098.68 35.1739C1097.08 35.2437 1095.76 35.671 1094.73 36.4555C1093.7 37.2282 1093.22 38.1765 1093.27 39.3004C1093.31 40.2994 1093.71 41.0726 1094.46 41.6199C1095.21 42.1671 1096.37 42.6001 1097.93 42.9186L1101.85 43.7028C1104.22 44.1683 1106 44.9607 1107.19 46.08C1108.39 47.1879 1109.03 48.6558 1109.11 50.4836C1109.18 51.9821 1108.8 53.3406 1107.99 54.559C1107.19 55.7768 1106.04 56.7598 1104.54 57.5079C1103.03 58.256 1101.27 58.6744 1099.23 58.7631C1096.57 58.8796 1094.33 58.397 1092.53 57.3154C1090.74 56.2337 1089.55 54.5905 1088.99 52.3856L1092.77 51.2655C1093.19 52.6573 1093.92 53.6832 1094.96 54.3429C1096.02 55.0022 1097.37 55.2959 1099.01 55.224C1100.89 55.1422 1102.36 54.68 1103.42 53.8372C1104.5 52.9825 1105.01 51.9933 1104.96 50.8693C1104.92 49.9611 1104.57 49.2144 1103.91 48.6291C1103.25 48.0324 1102.25 47.6096 1100.92 47.3605L1096.52 46.5291C1094.1 46.0661 1092.3 45.2631 1091.12 44.1201C1089.96 42.9653 1089.34 41.4853 1089.26 39.6802C1089.19 38.2043 1089.55 36.8807 1090.33 35.7092C1091.12 34.5372 1092.22 33.5962 1093.63 32.8862C1095.06 32.1756 1096.69 31.7802 1098.53 31.6999C1101.12 31.5869 1103.18 32.0658 1104.7 33.1366C1106.24 34.207 1107.36 35.6595 1108.07 37.4941Z" fill="black"/>
<path d="M1142.42 22.2995L1147.65 34.3826L1160.14 38.5418L1148.06 43.774L1143.9 56.2671L1138.67 44.184L1126.18 40.0248L1138.26 34.7927L1142.42 22.2995Z" fill="#FFD600"/>
<path d="M1180.09 54.6869L1178.57 19.811L1190.35 19.2965C1193.08 19.1775 1195.34 19.5453 1197.13 20.3999C1198.91 21.2432 1200.26 22.4525 1201.17 24.0279C1202.08 25.6034 1202.58 27.4185 1202.67 29.4734C1202.76 31.5282 1202.42 33.3687 1201.65 34.9948C1200.88 36.6208 1199.65 37.9259 1197.95 38.91C1196.25 39.8827 1194.05 40.428 1191.35 40.546L1181.81 40.9624L1181.65 37.1478L1191.05 36.7374C1192.91 36.6561 1194.4 36.3182 1195.51 35.7237C1196.63 35.1287 1197.43 34.3205 1197.89 33.2992C1198.37 32.266 1198.58 31.0512 1198.52 29.6548C1198.46 28.2584 1198.14 27.0494 1197.58 26.0277C1197.01 25.006 1196.14 24.2364 1194.97 23.7188C1193.79 23.1899 1192.27 22.9666 1190.38 23.0489L1182.96 23.373L1184.32 54.5025L1180.09 54.6869ZM1195.83 38.3032L1205.09 53.5954L1200.19 53.8095L1191.06 38.5114L1195.83 38.3032ZM1210.05 53.379L1208.53 18.5032L1220.31 17.9886C1223.03 17.8697 1225.29 18.2375 1227.08 19.0921C1228.87 19.9353 1230.22 21.1447 1231.13 22.7201C1232.04 24.2955 1232.54 26.1107 1232.63 28.1655C1232.72 30.2204 1232.38 32.0608 1231.61 33.6869C1230.84 35.313 1229.6 36.6181 1227.91 37.6021C1226.21 38.5748 1224.01 39.1202 1221.31 39.2382L1211.77 39.6545L1211.6 35.84L1221 35.4296C1222.86 35.3483 1224.35 35.0104 1225.46 34.4159C1226.59 33.8209 1227.38 33.0127 1227.85 31.9913C1228.33 30.9581 1228.53 29.7433 1228.47 28.3469C1228.41 26.9505 1228.1 25.7415 1227.53 24.7199C1226.96 23.6982 1226.09 22.9286 1224.92 22.411C1223.75 21.8821 1222.22 21.6587 1220.34 21.741L1212.91 22.0652L1214.27 53.1946L1210.05 53.379ZM1225.78 36.9954L1235.05 52.2875L1230.14 52.5017L1221.01 37.2036L1225.78 36.9954ZM1257.93 25.0815C1257.65 23.3648 1256.77 22.0614 1255.27 21.1712C1253.78 20.281 1251.97 19.882 1249.86 19.9742C1248.32 20.0416 1246.98 20.3504 1245.84 20.9004C1244.72 21.45 1243.85 22.176 1243.24 23.0785C1242.64 23.9804 1242.37 24.9876 1242.42 26.1002C1242.46 27.0311 1242.71 27.8218 1243.19 28.4723C1243.67 29.111 1244.27 29.6363 1245 30.0483C1245.72 30.449 1246.47 30.7744 1247.26 31.0245C1248.04 31.2633 1248.76 31.4537 1249.41 31.5957L1253 32.3947C1253.92 32.5935 1254.94 32.8786 1256.07 33.2501C1257.21 33.621 1258.31 34.1475 1259.37 34.8295C1260.43 35.4996 1261.32 36.382 1262.04 37.4767C1262.76 38.5714 1263.15 39.9361 1263.23 41.5709C1263.31 43.4555 1262.89 45.18 1261.97 46.7444C1261.06 48.3083 1259.68 49.5798 1257.83 50.559C1256 51.5376 1253.74 52.0855 1251.06 52.2024C1248.57 52.3115 1246.39 52.0029 1244.52 51.2766C1242.67 50.5499 1241.19 49.4884 1240.08 48.0922C1238.99 46.6955 1238.33 45.0465 1238.11 43.1452L1242.47 42.9548C1242.64 44.2668 1243.13 45.3373 1243.94 46.1664C1244.76 46.9837 1245.78 47.5763 1246.99 47.9444C1248.21 48.3005 1249.51 48.4484 1250.9 48.3879C1252.51 48.3175 1253.95 47.9932 1255.21 47.4149C1256.47 46.8253 1257.45 46.0431 1258.16 45.0681C1258.87 44.0817 1259.19 42.9528 1259.14 41.6813C1259.09 40.5233 1258.72 39.5951 1258.04 38.8968C1257.36 38.1985 1256.49 37.6453 1255.41 37.2373C1254.33 36.8293 1253.18 36.4817 1251.93 36.1947L1247.59 35.1559C1244.83 34.4915 1242.63 33.4675 1240.97 32.0837C1239.32 30.6999 1238.44 28.833 1238.34 26.483C1238.25 24.5303 1238.71 22.8043 1239.7 21.3051C1240.7 19.794 1242.08 18.5962 1243.84 17.7119C1245.61 16.8157 1247.61 16.319 1249.83 16.2218C1252.08 16.1237 1254.1 16.4395 1255.88 17.1692C1257.66 17.8875 1259.1 18.9169 1260.18 20.2574C1261.27 21.5973 1261.89 23.1459 1262.02 24.9031L1257.93 25.0815ZM1287.79 23.7778C1287.51 22.0611 1286.63 20.7576 1285.13 19.8674C1283.64 18.9772 1281.83 18.5783 1279.72 18.6704C1278.18 18.7379 1276.84 19.0466 1275.7 19.5967C1274.58 20.1463 1273.71 20.8723 1273.1 21.7747C1272.5 22.6766 1272.23 23.6839 1272.28 24.7965C1272.32 25.7274 1272.58 26.5181 1273.05 27.1686C1273.53 27.8072 1274.13 28.3325 1274.86 28.7446C1275.58 29.1453 1276.33 29.4706 1277.12 29.7208C1277.9 29.9595 1278.62 30.1499 1279.27 30.292L1282.86 31.0909C1283.78 31.2897 1284.8 31.5748 1285.93 31.9463C1287.07 32.3173 1288.17 32.8438 1289.23 33.5257C1290.29 34.1958 1291.18 35.0783 1291.9 36.1729C1292.62 37.2676 1293.02 38.6324 1293.09 40.2672C1293.17 42.1517 1292.75 43.8762 1291.83 45.4406C1290.92 47.0045 1289.54 48.2761 1287.7 49.2552C1285.86 50.2339 1283.6 50.7817 1280.93 50.8987C1278.43 51.0077 1276.25 50.6991 1274.38 49.9729C1272.53 49.2461 1271.05 48.1847 1269.95 46.7885C1268.85 45.3918 1268.19 43.7427 1267.97 41.8414L1272.33 41.6511C1272.5 42.963 1272.99 44.0336 1273.8 44.8627C1274.62 45.68 1275.64 46.2726 1276.85 46.6406C1278.07 46.9968 1279.37 47.1446 1280.76 47.0841C1282.37 47.0137 1283.81 46.6894 1285.07 46.1112C1286.33 45.5216 1287.31 44.7393 1288.02 43.7643C1288.73 42.7779 1289.05 41.649 1289 40.3775C1288.95 39.2195 1288.58 38.2914 1287.9 37.593C1287.22 36.8947 1286.35 36.3415 1285.27 35.9335C1284.2 35.5255 1283.04 35.178 1281.8 34.8909L1277.45 33.8522C1274.69 33.1878 1272.49 32.1637 1270.83 30.7799C1269.18 29.3962 1268.3 27.5293 1268.2 25.1792C1268.11 23.2266 1268.57 21.5006 1269.56 20.0013C1270.56 18.4902 1271.94 17.2925 1273.7 16.4081C1275.47 15.5119 1277.47 15.0152 1279.7 14.9181C1281.94 14.8199 1283.96 15.1357 1285.74 15.8654C1287.53 16.5838 1288.96 17.6132 1290.04 18.9536C1291.13 20.2936 1291.75 21.8421 1291.88 23.5993L1287.79 23.7778Z" fill="black"/>
<path d="M1327.24 14.2297L1332.47 26.3128L1344.97 30.472L1332.88 35.7041L1328.72 48.1973L1323.49 36.1142L1311 31.955L1323.08 26.7228L1327.24 14.2297Z" fill="#FFD600"/>
<path d="M1393.58 27.8943C1393.74 31.5726 1393.22 34.7804 1392.01 37.5177C1390.8 40.2549 1389.06 42.4007 1386.81 43.955C1384.56 45.5093 1381.94 46.3513 1378.97 46.4812C1376 46.6111 1373.32 46 1370.94 44.6479C1368.56 43.2959 1366.65 41.3092 1365.2 38.688C1363.76 36.0667 1362.95 32.9169 1362.79 29.2386C1362.63 25.5603 1363.16 22.3525 1364.37 19.6152C1365.58 16.878 1367.31 14.7322 1369.57 13.1779C1371.82 11.6236 1374.43 10.7816 1377.41 10.6517C1380.38 10.5218 1383.06 11.1329 1385.44 12.485C1387.82 13.837 1389.73 15.8237 1391.17 18.4449C1392.62 21.0662 1393.42 24.216 1393.58 27.8943ZM1389.5 28.0728C1389.36 25.0529 1388.75 22.5263 1387.65 20.4928C1386.56 18.4589 1385.13 16.9457 1383.37 15.9534C1381.62 14.9606 1379.69 14.5103 1377.58 14.6025C1375.47 14.6947 1373.58 15.3118 1371.91 16.4538C1370.25 17.5953 1368.96 19.2269 1368.05 21.3486C1367.14 23.4698 1366.75 26.0403 1366.88 29.0601C1367.01 32.08 1367.62 34.6069 1368.71 36.6408C1369.81 38.6743 1371.24 40.1874 1372.99 41.1802C1374.75 42.1726 1376.69 42.6226 1378.8 42.5304C1380.91 42.4382 1382.79 41.8214 1384.45 40.6799C1386.12 39.5378 1387.41 37.9062 1388.31 35.7851C1389.23 33.6634 1389.63 31.0926 1389.5 28.0728ZM1400.61 54.8862L1399.04 18.9205L1402.92 18.751L1403.1 22.9061L1403.58 22.8853C1403.85 22.4183 1404.24 21.8215 1404.73 21.0948C1405.23 20.3563 1405.97 19.6873 1406.93 19.0879C1407.9 18.4766 1409.24 18.1338 1410.94 18.0595C1413.15 17.9633 1415.11 18.4292 1416.84 19.457C1418.57 20.4849 1419.95 21.9886 1420.98 23.9683C1422.01 25.948 1422.58 28.3115 1422.7 31.0589C1422.83 33.829 1422.46 36.2507 1421.61 38.3239C1420.75 40.3859 1419.51 42.0096 1417.89 43.195C1416.27 44.3691 1414.37 45.0037 1412.19 45.0989C1410.51 45.1723 1409.16 44.9529 1408.12 44.4407C1407.09 43.9172 1406.28 43.3097 1405.7 42.6182C1405.13 41.9155 1404.68 41.3321 1404.36 40.8682L1404.02 40.883L1404.63 54.7108L1400.61 54.8862ZM1403.56 31.8265C1403.65 33.8019 1404.01 35.5319 1404.66 37.0165C1405.3 38.4898 1406.2 39.6279 1407.35 40.4308C1408.5 41.2223 1409.88 41.5829 1411.49 41.5125C1413.17 41.4391 1414.55 40.9352 1415.64 40.0006C1416.73 39.0541 1417.53 37.8136 1418.04 36.2789C1418.55 34.7323 1418.76 33.0281 1418.68 31.1662C1418.6 29.3271 1418.25 27.6819 1417.61 26.2309C1416.99 24.7679 1416.1 23.6298 1414.92 22.8166C1413.76 21.9915 1412.33 21.6161 1410.63 21.6905C1408.99 21.7619 1407.63 22.2362 1406.56 23.1135C1405.48 23.9795 1404.69 25.1628 1404.19 26.6635C1403.68 28.1528 1403.48 29.8738 1403.56 31.8265ZM1438.92 17.1794L1439.07 20.5852L1425.51 21.1771L1425.36 17.7712L1438.92 17.1794ZM1429.04 11.332L1433.06 11.1565L1434.15 36.0873C1434.2 37.2226 1434.4 38.0668 1434.75 38.6201C1435.12 39.1615 1435.56 39.5173 1436.09 39.6875C1436.64 39.8459 1437.2 39.9122 1437.79 39.8864C1438.24 39.8671 1438.6 39.8285 1438.88 39.7707C1439.16 39.7015 1439.39 39.6462 1439.55 39.6047L1440.53 43.1792C1440.26 43.2933 1439.89 43.4121 1439.4 43.5356C1438.92 43.6704 1438.3 43.7542 1437.55 43.7869C1436.42 43.8365 1435.3 43.641 1434.18 43.2004C1433.08 42.7593 1432.15 42.0548 1431.4 41.087C1430.65 40.1187 1430.24 38.8739 1430.18 37.3526L1429.04 11.332ZM1445.39 43.1037L1444.24 16.9468L1448.26 16.7714L1449.4 42.9283L1445.39 43.1037ZM1446.1 12.4981C1445.31 12.5323 1444.63 12.295 1444.03 11.7862C1443.46 11.2769 1443.15 10.6477 1443.12 9.89837C1443.08 9.14908 1443.33 8.4955 1443.87 7.93763C1444.41 7.37927 1445.07 7.08298 1445.86 7.04878C1446.64 7.01458 1447.32 7.25213 1447.9 7.76142C1448.49 8.27022 1448.81 8.89926 1448.84 9.64855C1448.87 10.3978 1448.62 11.0517 1448.07 11.61C1447.54 12.1679 1446.88 12.4639 1446.1 12.4981ZM1456.05 42.6383L1454.9 16.4814L1458.79 16.3119L1458.96 20.3989L1459.31 20.384C1459.79 18.9638 1460.62 17.8412 1461.8 17.0162C1462.98 16.1798 1464.43 15.7244 1466.13 15.6501C1467.85 15.5747 1469.31 15.9037 1470.49 16.637C1471.68 17.3584 1472.63 18.4032 1473.34 19.7714L1473.61 19.7595C1474.22 18.3792 1475.18 17.2625 1476.48 16.4093C1477.79 15.5448 1479.38 15.0716 1481.25 14.9899C1483.59 14.8877 1485.53 15.5365 1487.08 16.9361C1488.64 18.3243 1489.48 20.5567 1489.61 23.6333L1490.38 41.1394L1486.36 41.3148L1485.59 23.8088C1485.51 21.8788 1484.92 20.5225 1483.83 19.7398C1482.74 18.9572 1481.48 18.5971 1480.05 18.6595C1478.21 18.7398 1476.81 19.3583 1475.84 20.515C1474.88 21.6604 1474.44 23.0788 1474.51 24.7704L1475.25 41.7996L1471.17 41.9781L1470.39 24.0633C1470.32 22.5761 1469.79 21.3994 1468.78 20.5333C1467.78 19.6559 1466.51 19.2504 1464.99 19.3168C1463.95 19.3624 1462.98 19.6832 1462.1 20.2791C1461.23 20.8746 1460.53 21.6783 1460.02 22.6903C1459.52 23.6904 1459.29 24.8319 1459.35 26.1148L1460.06 42.4628L1456.05 42.6383ZM1497.01 40.85L1495.86 14.6931L1499.88 14.5176L1501.02 40.6745L1497.01 40.85ZM1497.72 10.2443C1496.93 10.2786 1496.25 10.0413 1495.66 9.53245C1495.08 9.02316 1494.77 8.39387 1494.74 7.64458C1494.7 6.8953 1494.95 6.24172 1495.49 5.68385C1496.03 5.12548 1496.7 4.8292 1497.48 4.79499C1498.26 4.76079 1498.94 4.99834 1499.52 5.50763C1500.11 6.01643 1500.43 6.64548 1500.46 7.39476C1500.49 8.14405 1500.24 8.79787 1499.69 9.35624C1499.16 9.91411 1498.5 10.2101 1497.72 10.2443ZM1506.92 40.4172L1506.78 37.352L1520.8 17.6309L1520.79 17.3584L1506.41 17.9859L1506.25 14.2395L1525.8 13.386L1525.94 16.5874L1512.33 36.1545L1512.34 36.4269L1527.26 35.7756L1527.42 39.522L1506.92 40.4172ZM1540.61 39.5602C1538.96 39.6325 1537.44 39.386 1536.06 38.8206C1534.68 38.2438 1533.57 37.3767 1532.72 36.2194C1531.88 35.0507 1531.41 33.6149 1531.34 31.912C1531.27 30.4134 1531.52 29.1857 1532.07 28.229C1532.62 27.261 1533.37 26.4886 1534.34 25.9119C1535.3 25.3352 1536.37 24.8903 1537.55 24.5771C1538.75 24.2521 1539.95 23.9836 1541.15 23.7716C1542.73 23.4979 1544.02 23.2883 1545 23.143C1545.99 22.9859 1546.71 22.7669 1547.15 22.4859C1547.61 22.2045 1547.82 21.7402 1547.79 21.0931L1547.79 20.9569C1547.71 19.2766 1547.2 17.9911 1546.24 17.1004C1545.29 16.2091 1543.89 15.8038 1542.04 15.8846C1540.12 15.9684 1538.63 16.4541 1537.58 17.3418C1536.53 18.2295 1535.8 19.1599 1535.4 20.1328L1531.52 18.937C1532.14 17.3179 1532.99 16.0408 1534.09 15.1057C1535.19 14.1588 1536.42 13.4798 1537.75 13.0689C1539.1 12.6461 1540.43 12.406 1541.75 12.3485C1542.59 12.3118 1543.56 12.3719 1544.66 12.5286C1545.76 12.6735 1546.84 13.0302 1547.89 13.5987C1548.95 14.1666 1549.85 15.0544 1550.59 16.2622C1551.32 17.4699 1551.73 19.1125 1551.82 21.1901L1552.58 38.4237L1548.56 38.5991L1548.4 35.0571L1548.2 35.066C1547.95 35.6455 1547.52 36.2727 1546.92 36.9476C1546.31 37.6225 1545.49 38.21 1544.45 38.7102C1543.41 39.2104 1542.14 39.4937 1540.61 39.5602ZM1541.07 35.9232C1542.66 35.8538 1543.99 35.4831 1545.05 34.8111C1546.12 34.1386 1546.92 33.2964 1547.43 32.2844C1547.95 31.2719 1548.19 30.2208 1548.14 29.1309L1547.98 25.4526C1547.82 25.6644 1547.46 25.868 1546.88 26.0636C1546.32 26.2473 1545.67 26.418 1544.93 26.5756C1544.19 26.7213 1543.48 26.855 1542.78 26.9765C1542.09 27.0862 1541.53 27.1789 1541.1 27.2545C1540.06 27.4363 1539.1 27.7003 1538.2 28.0465C1537.32 28.3809 1536.61 28.861 1536.08 29.487C1535.56 30.1011 1535.32 30.9191 1535.37 31.9408C1535.43 33.3372 1535.99 34.3705 1537.06 35.0406C1538.13 35.6989 1539.47 35.9931 1541.07 35.9232ZM1569.84 38.2158C1567.39 38.3229 1565.25 37.8361 1563.43 36.7554C1561.61 35.6747 1560.18 34.1391 1559.14 32.1486C1558.09 30.1581 1557.52 27.8573 1557.4 25.2461C1557.29 22.5896 1557.67 20.2239 1558.56 18.1491C1559.46 16.0625 1560.76 14.4074 1562.47 13.184C1564.19 11.9487 1566.23 11.2794 1568.59 11.1763C1570.43 11.096 1572.11 11.3643 1573.61 11.981C1575.12 12.5977 1576.37 13.4986 1577.36 14.6835C1578.36 15.8685 1579.01 17.2734 1579.3 18.8983L1575.29 19.0738C1574.93 17.8951 1574.2 16.8691 1573.1 15.9956C1572.02 15.1102 1570.59 14.7062 1568.82 14.7836C1567.25 14.852 1565.9 15.3207 1564.75 16.1896C1563.62 17.0467 1562.75 18.2276 1562.16 19.7322C1561.58 21.225 1561.33 22.959 1561.41 24.9344C1561.5 26.9552 1561.9 28.701 1562.6 30.1718C1563.31 31.6422 1564.27 32.7662 1565.48 33.5439C1566.69 34.3211 1568.1 34.675 1569.68 34.6056C1570.73 34.56 1571.67 34.337 1572.5 33.9365C1573.34 33.536 1574.04 32.9823 1574.6 32.2754C1575.16 31.5684 1575.54 30.7327 1575.75 29.7681L1579.77 29.5927C1579.61 31.1466 1579.11 32.5618 1578.27 33.8384C1577.44 35.1032 1576.3 36.1309 1574.87 36.9214C1573.45 37.7001 1571.77 38.1315 1569.84 38.2158ZM1585.26 36.9967L1584.12 10.8398L1588.14 10.6643L1589.28 36.8212L1585.26 36.9967ZM1585.97 6.39107C1585.19 6.42527 1584.5 6.18797 1583.91 5.67917C1583.33 5.16988 1583.02 4.54059 1582.99 3.7913C1582.96 3.04201 1583.21 2.38843 1583.74 1.83056C1584.29 1.2722 1584.95 0.975914 1585.73 0.941712C1586.52 0.907511 1587.2 1.14506 1587.78 1.65435C1588.37 2.16315 1588.68 2.79219 1588.71 3.54148C1588.75 4.29077 1588.49 4.94459 1587.95 5.50296C1587.41 6.06083 1586.75 6.35687 1585.97 6.39107ZM1606.03 33.701L1605.05 11.2224L1608.87 11.0559L1609.85 33.5345L1606.03 33.701ZM1596.29 24.7765L1596.13 20.9619L1618.61 19.9805L1618.77 23.795L1596.29 24.7765ZM1637.46 35.2635C1635.1 35.3666 1633 34.8951 1631.17 33.849C1629.35 32.8024 1627.9 31.2905 1626.81 29.3133C1625.74 27.3356 1625.14 24.9958 1625.02 22.2938C1624.9 19.5691 1625.29 17.1691 1626.19 15.0939C1627.1 13.0181 1628.42 11.3796 1630.14 10.1783C1631.87 8.97658 1633.92 8.32415 1636.28 8.22105C1638.64 8.11795 1640.73 8.5897 1642.55 9.63631C1644.38 10.6824 1645.84 12.2 1646.92 14.189C1648 16.1775 1648.61 18.5342 1648.73 21.2588C1648.84 23.9608 1648.45 26.344 1647.54 28.4084C1646.64 30.4723 1645.32 32.1052 1643.59 33.3069C1641.86 34.5082 1639.82 35.1604 1637.46 35.2635ZM1637.3 31.6533C1639.1 31.575 1640.55 31.0507 1641.67 30.0806C1642.79 29.1105 1643.59 27.864 1644.08 26.3411C1644.58 24.8182 1644.78 23.1826 1644.71 21.4343C1644.63 19.686 1644.28 18.069 1643.66 16.5833C1643.04 15.0977 1642.13 13.9147 1640.93 13.0343C1639.73 12.154 1638.23 11.7529 1636.44 11.8312C1634.64 11.9096 1633.19 12.4395 1632.07 13.421C1630.95 14.4024 1630.15 15.6603 1629.66 17.1945C1629.17 18.7287 1628.96 20.37 1629.04 22.1183C1629.12 23.8667 1629.46 25.478 1630.09 26.9523C1630.71 28.4265 1631.62 29.5982 1632.82 30.4672C1634.01 31.3362 1635.51 31.7316 1637.3 31.6533ZM1658.04 18.0541L1658.72 33.7891L1654.71 33.9646L1653.56 7.80771L1657.45 7.63818L1657.62 11.7252L1657.97 11.7103C1658.52 10.3553 1659.4 9.24747 1660.62 8.3869C1661.83 7.51497 1663.43 7.03588 1665.4 6.94964C1667.17 6.87231 1668.74 7.16794 1670.1 7.83653C1671.46 8.49376 1672.54 9.53853 1673.34 10.9708C1674.14 12.3918 1674.59 14.2148 1674.69 16.44L1675.41 33.0605L1671.39 33.236L1670.68 16.8879C1670.59 14.833 1669.99 13.2556 1668.87 12.1555C1667.75 11.0442 1666.26 10.5291 1664.4 10.6104C1663.12 10.6664 1661.98 10.9946 1661 11.595C1660.02 12.1949 1659.27 13.0411 1658.74 14.1335C1658.2 15.226 1657.97 16.5328 1658.04 18.0541Z" fill="black"/>
</g>
<defs>
<clipPath id="clip0_64_1463">
<path d="M0 24.0811C0 10.8262 10.7452 0.0810547 24 0.0810547H1440V123.081C1440 136.336 1429.25 147.081 1416 147.081H0V24.0811Z" fill="white"/>
</clipPath>
</defs>
</svg>
