<svg width="1440" height="864" viewBox="0 0 1440 864" fill="none" xmlns="http://www.w3.org/2000/svg">
<rect y="0.581055" width="1440" height="863" rx="50" fill="#F2F4F7"/>
<path d="M1141.81 133.398L1140.25 135.479L1136.87 134.699C1135.05 134.244 1132.84 133.918 1131.93 133.918C1129.53 133.918 1129.92 136.455 1132.65 139.121L1134.92 141.332L1132.26 144.063C1130.57 145.754 1129.66 147.25 1129.85 147.965C1130.05 149.071 1130.63 149.201 1135.64 149.006L1141.09 148.811L1142.33 150.892C1146.94 158.761 1151.03 158.826 1148.95 150.957L1148.05 147.575L1149.73 147.185C1154.74 146.079 1155.39 145.819 1155.39 144.909C1155.39 144.389 1153.5 143.023 1151.23 141.917C1146.42 139.511 1145.97 138.991 1145.97 135.739C1145.97 130.862 1144.47 130.016 1141.81 133.398ZM1137.52 138.471C1137.52 138.796 1137.39 139.121 1137.26 139.121C1137.07 139.121 1136.74 138.796 1136.55 138.471C1136.35 138.08 1136.48 137.82 1136.81 137.82C1137.19 137.82 1137.52 138.08 1137.52 138.471ZM1142.59 140.552C1143.04 141.007 1143.37 142.373 1143.37 143.608V145.949L1141.29 143.868C1139.53 142.112 1139.4 141.657 1140.12 140.812C1141.09 139.576 1141.55 139.511 1142.59 140.552ZM1138.04 145.494C1138.17 145.949 1137.58 146.275 1136.55 146.275C1134.99 146.275 1134.86 146.144 1135.57 145.299C1136.48 144.194 1137.58 144.259 1138.04 145.494Z" fill="black"/>
<path d="M881.525 368.492L879.966 370.573L876.587 369.793C874.768 369.338 872.559 369.013 871.65 369.013C869.246 369.013 869.635 371.549 872.364 374.215L874.638 376.426L871.974 379.158C870.285 380.849 869.376 382.344 869.57 383.06C869.765 384.165 870.35 384.295 875.353 384.1L880.811 383.905L882.045 385.986C886.658 393.855 890.751 393.92 888.672 386.051L887.763 382.669L889.452 382.279C894.455 381.174 895.104 380.914 895.104 380.003C895.104 379.483 893.22 378.117 890.946 377.012C886.138 374.605 885.683 374.085 885.683 370.834C885.683 365.956 884.189 365.111 881.525 368.492ZM877.237 373.565C877.237 373.89 877.107 374.215 876.977 374.215C876.782 374.215 876.457 373.89 876.263 373.565C876.068 373.175 876.198 372.915 876.522 372.915C876.912 372.915 877.237 373.175 877.237 373.565ZM882.305 375.646C882.76 376.101 883.085 377.467 883.085 378.702V381.044L881.005 378.963C879.251 377.207 879.121 376.751 879.836 375.906C880.811 374.67 881.265 374.605 882.305 375.646ZM877.757 380.588C877.887 381.044 877.302 381.369 876.263 381.369C874.703 381.369 874.573 381.239 875.288 380.393C876.198 379.288 877.302 379.353 877.757 380.588Z" fill="black"/>
<path d="M621.243 603.587L619.683 605.668L616.305 604.887C614.485 604.432 612.276 604.107 611.367 604.107C608.963 604.107 609.353 606.643 612.082 609.309L614.356 611.521L611.692 614.252C610.002 615.943 609.093 617.439 609.288 618.154C609.483 619.259 610.067 619.389 615.07 619.194L620.528 618.999L621.762 621.08C626.375 628.949 630.469 629.014 628.389 621.145L627.48 617.764L629.169 617.373C634.172 616.268 634.822 616.008 634.822 615.097C634.822 614.577 632.937 613.211 630.663 612.106C625.856 609.7 625.401 609.179 625.401 605.928C625.401 601.05 623.906 600.205 621.243 603.587ZM616.954 608.659C616.954 608.984 616.824 609.309 616.695 609.309C616.5 609.309 616.175 608.984 615.98 608.659C615.785 608.269 615.915 608.009 616.24 608.009C616.63 608.009 616.954 608.269 616.954 608.659ZM622.022 610.74C622.477 611.195 622.802 612.561 622.802 613.797V616.138L620.723 614.057C618.969 612.301 618.839 611.846 619.553 611C620.528 609.765 620.983 609.7 622.022 610.74ZM617.474 615.683C617.604 616.138 617.019 616.463 615.98 616.463C614.421 616.463 614.291 616.333 615.005 615.488C615.915 614.382 617.019 614.447 617.474 615.683Z" fill="black"/>
<path d="M338.57 530.819L337.011 532.901L333.632 532.12C331.813 531.665 329.604 531.34 328.694 531.34C326.29 531.34 326.68 533.876 329.409 536.542L331.683 538.753L329.019 541.485C327.33 543.176 326.42 544.671 326.615 545.387C326.81 546.492 327.395 546.622 332.398 546.427L337.855 546.232L339.09 548.313C343.703 556.182 347.796 556.247 345.717 548.378L344.807 544.997L346.496 544.606C351.499 543.501 352.149 543.241 352.149 542.33C352.149 541.81 350.265 540.444 347.991 539.339C343.183 536.933 342.728 536.412 342.728 533.161C342.728 528.283 341.234 527.438 338.57 530.819ZM334.282 535.892C334.282 536.217 334.152 536.542 334.022 536.542C333.827 536.542 333.502 536.217 333.307 535.892C333.112 535.502 333.242 535.242 333.567 535.242C333.957 535.242 334.282 535.502 334.282 535.892ZM339.35 537.973C339.804 538.428 340.129 539.794 340.129 541.03V543.371L338.05 541.29C336.296 539.534 336.166 539.079 336.881 538.233C337.855 536.998 338.31 536.933 339.35 537.973ZM334.802 542.916C334.932 543.371 334.347 543.696 333.307 543.696C331.748 543.696 331.618 543.566 332.333 542.72C333.242 541.615 334.347 541.68 334.802 542.916Z" fill="black"/>
<path d="M1334.92 530.819L1333.36 532.901L1329.98 532.12C1328.16 531.665 1325.95 531.34 1325.05 531.34C1322.64 531.34 1323.03 533.876 1325.76 536.542L1328.03 538.753L1325.37 541.485C1323.68 543.176 1322.77 544.671 1322.97 545.387C1323.16 546.492 1323.75 546.622 1328.75 546.427L1334.21 546.232L1335.44 548.313C1340.05 556.182 1344.15 556.247 1342.07 548.378L1341.16 544.997L1342.85 544.606C1347.85 543.501 1348.5 543.241 1348.5 542.33C1348.5 541.81 1346.62 540.444 1344.34 539.339C1339.53 536.933 1339.08 536.412 1339.08 533.161C1339.08 528.283 1337.58 527.438 1334.92 530.819ZM1330.63 535.892C1330.63 536.217 1330.5 536.542 1330.37 536.542C1330.18 536.542 1329.85 536.217 1329.66 535.892C1329.46 535.502 1329.59 535.242 1329.92 535.242C1330.31 535.242 1330.63 535.502 1330.63 535.892ZM1335.7 537.973C1336.16 538.428 1336.48 539.794 1336.48 541.03V543.371L1334.4 541.29C1332.65 539.534 1332.52 539.079 1333.23 538.233C1334.21 536.998 1334.66 536.933 1335.7 537.973ZM1331.15 542.916C1331.28 543.371 1330.7 543.696 1329.66 543.696C1328.1 543.696 1327.97 543.566 1328.68 542.72C1329.59 541.615 1330.7 541.68 1331.15 542.916Z" fill="black"/>
<path d="M161.031 250.187L158.562 251.003L156.236 248.431C155.004 247.017 153.377 245.487 152.631 244.967C150.659 243.593 149.529 245.896 150.243 249.644L150.844 252.758L147.097 253.476C144.744 253.897 143.143 254.604 142.894 255.303C142.421 256.321 142.827 256.762 147.043 259.463L151.632 262.423L151.454 264.836C150.74 273.93 154.061 276.323 156.854 268.679L158.042 265.385L159.651 266.03C164.387 267.984 165.069 268.142 165.589 267.395C165.887 266.968 165.122 264.77 163.888 262.563C161.32 257.84 161.244 257.153 163.103 254.486C165.892 250.484 165.15 248.936 161.031 250.187ZM154.612 251.897C154.426 252.164 154.134 252.356 154.027 252.282C153.867 252.17 153.787 251.718 153.813 251.34C153.876 250.908 154.131 250.769 154.398 250.955C154.718 251.178 154.835 251.577 154.612 251.897ZM157.58 256.502C157.693 257.135 157.179 258.442 156.472 259.455L155.133 261.376L154.618 258.48C154.182 256.036 154.336 255.588 155.406 255.304C156.912 254.847 157.322 255.054 157.58 256.502ZM151.023 257.956C150.869 258.404 150.203 258.336 149.351 257.742C148.071 256.85 148.039 256.669 149.109 256.384C150.487 255.997 151.356 256.682 151.023 257.956Z" fill="#0A0A0A"/>
<path d="M499.162 301.596L496.693 302.412L494.367 299.84C493.135 298.426 491.508 296.897 490.762 296.376C488.79 295.002 487.66 297.306 488.374 301.053L488.975 304.168L485.228 304.885C482.875 305.306 481.274 306.013 481.025 306.712C480.552 307.73 480.958 308.171 485.174 310.872L489.763 313.832L489.585 316.245C488.871 325.339 492.191 327.733 494.985 320.088L496.172 316.794L497.781 317.439C502.518 319.393 503.2 319.551 503.72 318.804C504.018 318.377 503.253 316.18 502.019 313.972C499.451 309.249 499.375 308.562 501.234 305.895C504.023 301.893 503.281 300.345 499.162 301.596ZM492.743 303.306C492.557 303.573 492.265 303.765 492.158 303.691C491.998 303.579 491.918 303.127 491.944 302.749C492.007 302.317 492.262 302.178 492.529 302.364C492.849 302.587 492.966 302.986 492.743 303.306ZM495.711 307.911C495.824 308.545 495.309 309.851 494.603 310.864L493.264 312.785L492.749 309.889C492.313 307.445 492.467 306.998 493.537 306.713C495.043 306.256 495.453 306.463 495.711 307.911ZM489.154 309.365C489 309.813 488.334 309.745 487.482 309.151C486.202 308.259 486.17 308.078 487.24 307.794C488.618 307.407 489.487 308.092 489.154 309.365Z" fill="#525252"/>
<path d="M944.225 751.107L941.756 751.922L939.43 749.35C938.198 747.937 936.572 746.407 935.825 745.887C933.853 744.512 932.723 746.816 933.437 750.564L934.038 753.678L930.291 754.395C927.938 754.817 926.337 755.524 926.088 756.222C925.616 757.24 926.021 757.682 930.237 760.382L934.826 763.343L934.649 765.756C933.934 774.849 937.255 777.243 940.048 769.598L941.236 766.304L942.845 766.95C947.581 768.903 948.263 769.061 948.784 768.314C949.081 767.888 948.316 765.69 947.083 763.483C944.514 758.759 944.438 758.073 946.298 755.405C949.087 751.404 948.344 749.855 944.225 751.107ZM937.807 752.816C937.621 753.083 937.328 753.275 937.222 753.201C937.062 753.09 936.981 752.637 937.007 752.259C937.07 751.827 937.326 751.688 937.592 751.874C937.912 752.097 938.03 752.496 937.807 752.816ZM940.774 757.421C940.887 758.055 940.373 759.361 939.666 760.375L938.328 762.295L937.812 759.399C937.377 756.956 937.53 756.508 938.6 756.223C940.106 755.767 940.516 755.973 940.774 757.421ZM934.217 758.876C934.063 759.323 933.398 759.256 932.545 758.661C931.266 757.77 931.233 757.589 932.303 757.304C933.681 756.917 934.55 757.602 934.217 758.876Z" fill="#525252"/>
<path d="M196.563 791.53L194.094 792.346L191.769 789.774C190.537 788.36 188.91 786.831 188.164 786.31C186.192 784.936 185.061 787.24 185.776 790.987L186.377 794.102L182.63 794.819C180.277 795.241 178.675 795.948 178.426 796.646C177.954 797.664 178.359 798.105 182.575 800.806L187.164 803.766L186.987 806.18C186.272 815.273 189.593 817.667 192.387 810.022L193.574 806.728L195.183 807.374C199.92 809.327 200.601 809.485 201.122 808.738C201.42 808.311 200.655 806.114 199.421 803.906C196.853 799.183 196.777 798.496 198.636 795.829C201.425 791.827 200.683 790.279 196.563 791.53ZM190.145 793.24C189.959 793.507 189.667 793.699 189.56 793.625C189.4 793.514 189.32 793.061 189.346 792.683C189.409 792.251 189.664 792.112 189.931 792.298C190.25 792.521 190.368 792.92 190.145 793.24ZM193.113 797.845C193.226 798.479 192.711 799.785 192.005 800.798L190.666 802.719L190.15 799.823C189.715 797.379 189.869 796.932 190.939 796.647C192.445 796.19 192.855 796.397 193.113 797.845ZM186.556 799.299C186.402 799.747 185.736 799.68 184.883 799.085C183.604 798.194 183.572 798.013 184.642 797.728C186.02 797.341 186.889 798.026 186.556 799.299Z" fill="#525252"/>
<path d="M229.106 62.2019L226.637 63.0176L224.311 60.4455C223.079 59.0318 221.453 57.502 220.707 56.9819C218.734 55.6073 217.604 57.911 218.318 61.6587L218.919 64.773L215.172 65.4907C212.82 65.9119 211.218 66.6189 210.969 67.3173C210.497 68.3357 210.902 68.7768 215.118 71.4773L219.707 74.4378L219.53 76.851C218.815 85.9443 222.136 88.3381 224.929 80.6936L226.117 77.3992L227.726 78.045C232.462 79.9985 233.144 80.1566 233.665 79.4097C233.962 78.9829 233.197 76.7851 231.964 74.5778C229.395 69.8547 229.32 69.1678 231.179 66.5002C233.968 62.4987 233.225 60.9507 229.106 62.2019ZM222.688 63.9115C222.502 64.1782 222.209 64.3707 222.103 64.2964C221.943 64.185 221.862 63.7324 221.888 63.3542C221.951 62.9227 222.207 62.7835 222.473 62.9693C222.793 63.1922 222.911 63.5914 222.688 63.9115ZM225.655 68.5165C225.768 69.15 225.254 70.4561 224.547 71.4699L223.209 73.3906L222.693 70.4945C222.258 68.0509 222.411 67.6031 223.481 67.3182C224.987 66.8617 225.397 67.0684 225.655 68.5165ZM219.098 69.9708C218.944 70.4185 218.279 70.351 217.426 69.7566C216.147 68.865 216.114 68.6839 217.184 68.399C218.563 68.0121 219.432 68.697 219.098 69.9708Z" fill="black"/>
</svg>
