<svg width="68" height="18" viewBox="0 0 68 18" fill="none" xmlns="http://www.w3.org/2000/svg">
<path d="M17.2426 7.87411L13.727 10.9077L14.798 15.4444C14.8571 15.6907 14.8419 15.949 14.7543 16.1866C14.6667 16.4242 14.5106 16.6306 14.3058 16.7795C14.101 16.9285 13.8566 17.0134 13.6035 17.0236C13.3505 17.0338 13.1001 16.9687 12.884 16.8366L8.93867 14.4085L4.99102 16.8366C4.77494 16.9679 4.52485 17.0324 4.27222 17.0219C4.01959 17.0113 3.77572 16.9263 3.57133 16.7774C3.36694 16.6286 3.21115 16.4226 3.1236 16.1854C3.03604 15.9482 3.02063 15.6904 3.0793 15.4444L4.1543 10.9077L0.638672 7.87411C0.447499 7.70888 0.309238 7.491 0.241158 7.24766C0.173078 7.00433 0.178196 6.74633 0.255871 6.50588C0.333547 6.26544 0.480338 6.05321 0.677913 5.89569C0.875488 5.73818 1.11509 5.64236 1.3668 5.6202L5.97617 5.24833L7.7543 0.945204C7.85054 0.710686 8.01435 0.510086 8.2249 0.368906C8.43545 0.227726 8.68322 0.152344 8.93672 0.152344C9.19022 0.152344 9.43799 0.227726 9.64854 0.368906C9.85909 0.510086 10.0229 0.710686 10.1191 0.945204L11.8965 5.24833L16.5059 5.6202C16.7581 5.64153 16.9984 5.73682 17.1967 5.89411C17.395 6.05141 17.5424 6.26373 17.6206 6.50447C17.6987 6.7452 17.7041 7.00365 17.636 7.24743C17.568 7.49121 17.4295 7.70948 17.2379 7.87489L17.2426 7.87411Z" fill="#EEBD06"/>
<path d="M42.205 7.87411L38.6894 10.9077L39.7605 15.4444C39.8196 15.6907 39.8044 15.949 39.7168 16.1866C39.6292 16.4242 39.4731 16.6306 39.2683 16.7795C39.0635 16.9285 38.8191 17.0134 38.566 17.0236C38.3129 17.0338 38.0625 16.9687 37.8464 16.8366L33.9011 14.4085L29.9535 16.8366C29.7374 16.9679 29.4873 17.0324 29.2347 17.0219C28.9821 17.0113 28.7382 16.9263 28.5338 16.7774C28.3294 16.6286 28.1736 16.4226 28.0861 16.1854C27.9985 15.9482 27.9831 15.6904 28.0418 15.4444L29.1168 10.9077L25.6011 7.87411C25.41 7.70888 25.2717 7.491 25.2036 7.24766C25.1355 7.00433 25.1407 6.74633 25.2183 6.50588C25.296 6.26544 25.4428 6.05321 25.6404 5.89569C25.838 5.73818 26.0776 5.64236 26.3293 5.6202L30.9386 5.24833L32.7168 0.945204C32.813 0.710686 32.9768 0.510086 33.1874 0.368906C33.3979 0.227726 33.6457 0.152344 33.8992 0.152344C34.1527 0.152344 34.4005 0.227726 34.611 0.368906C34.8215 0.510086 34.9854 0.710686 35.0816 0.945204L36.8589 5.24833L41.4683 5.6202C41.7205 5.64153 41.9608 5.73682 42.1591 5.89411C42.3574 6.05141 42.5049 6.26373 42.583 6.50447C42.6612 6.7452 42.6666 7.00365 42.5985 7.24743C42.5304 7.49121 42.3919 7.70948 42.2004 7.87489L42.205 7.87411Z" fill="#EEBD06"/>
<path d="M67.1675 7.87411L63.6519 10.9077L64.723 15.4444C64.7821 15.6907 64.7669 15.949 64.6792 16.1866C64.5916 16.4242 64.4356 16.6306 64.2307 16.7795C64.0259 16.9285 63.7815 17.0134 63.5285 17.0236C63.2754 17.0338 63.025 16.9687 62.8089 16.8366L58.8636 14.4085L54.9159 16.8366C54.6999 16.9679 54.4498 17.0324 54.1971 17.0219C53.9445 17.0113 53.7007 16.9263 53.4963 16.7774C53.2919 16.6286 53.1361 16.4226 53.0485 16.1854C52.961 15.9482 52.9456 15.6904 53.0042 15.4444L54.0792 10.9077L50.5636 7.87411C50.3724 7.70888 50.2342 7.491 50.1661 7.24766C50.098 7.00433 50.1031 6.74633 50.1808 6.50588C50.2585 6.26544 50.4053 6.05321 50.6028 5.89569C50.8004 5.73818 51.04 5.64236 51.2917 5.6202L55.9011 5.24833L57.6792 0.945204C57.7755 0.710686 57.9393 0.510086 58.1498 0.368906C58.3604 0.227726 58.6081 0.152344 58.8616 0.152344C59.1151 0.152344 59.3629 0.227726 59.5735 0.368906C59.784 0.510086 59.9478 0.710686 60.0441 0.945204L61.8214 5.24833L66.4308 5.6202C66.683 5.64153 66.9233 5.73682 67.1216 5.89411C67.3199 6.05141 67.4673 6.26373 67.5455 6.50447C67.6237 6.7452 67.629 7.00365 67.561 7.24743C67.4929 7.49121 67.3544 7.70948 67.1628 7.87489L67.1675 7.87411Z" fill="#EEBD06"/>
</svg>
