<svg width="20" height="20" viewBox="0 0 20 20" fill="none" xmlns="http://www.w3.org/2000/svg">
<path fill-rule="evenodd" clip-rule="evenodd" d="M13.75 19.5C15.275 19.5 16.7375 18.8942 17.8159 17.8159C18.8942 16.7375 19.5 15.275 19.5 13.75V5.75C19.5 4.22501 18.8942 2.76247 17.8159 1.68414C16.7375 0.605802 15.275 0 13.75 0H5.75C4.22501 0 2.76247 0.605802 1.68414 1.68414C0.605802 2.76247 0 4.22501 0 5.75V13.75C0 15.275 0.605802 16.7375 1.68414 17.8159C2.76247 18.8942 4.22501 19.5 5.75 19.5H13.75ZM11.461 3.513C11.4044 3.34444 11.2898 3.20147 11.1376 3.10959C10.9853 3.01771 10.8054 2.9829 10.6299 3.01137C10.4544 3.03985 10.2947 3.12974 10.1793 3.26503C10.064 3.40032 10.0004 3.5722 10 3.75V12.75C10 13.195 9.86804 13.63 9.62081 14C9.37357 14.37 9.02217 14.6584 8.61104 14.8287C8.1999 14.999 7.7475 15.0436 7.31105 14.9568C6.87459 14.8699 6.47368 14.6557 6.15901 14.341C5.84434 14.0263 5.63005 13.6254 5.54323 13.189C5.45642 12.7525 5.50097 12.3001 5.67127 11.889C5.84157 11.4778 6.12996 11.1264 6.49997 10.8792C6.86998 10.632 7.30499 10.5 7.75 10.5C7.94891 10.5 8.13968 10.421 8.28033 10.2803C8.42098 10.1397 8.5 9.94891 8.5 9.75C8.5 9.55109 8.42098 9.36032 8.28033 9.21967C8.13968 9.07902 7.94891 9 7.75 9C7.00832 9 6.2833 9.21993 5.66661 9.63199C5.04993 10.044 4.56928 10.6297 4.28545 11.3149C4.00162 12.0002 3.92736 12.7542 4.07206 13.4816C4.21675 14.209 4.5739 14.8772 5.09835 15.4017C5.6228 15.9261 6.29098 16.2832 7.01841 16.4279C7.74584 16.5726 8.49984 16.4984 9.18506 16.2145C9.87029 15.9307 10.456 15.4501 10.868 14.8334C11.2801 14.2167 11.5 13.4917 11.5 12.75V6.208C12.267 6.92 13.347 7.5 14.75 7.5C14.9489 7.5 15.1397 7.42098 15.2803 7.28033C15.421 7.13968 15.5 6.94891 15.5 6.75C15.5 6.55109 15.421 6.36032 15.2803 6.21967C15.1397 6.07902 14.9489 6 14.75 6C13.778 6 13.039 5.6 12.491 5.081C11.931 4.549 11.593 3.908 11.461 3.513Z" fill="white"/>
</svg>
