<svg width="43" height="18" viewBox="0 0 43 18" fill="none" xmlns="http://www.w3.org/2000/svg">
<path d="M17.2426 8.43026L13.727 11.4639L14.798 16.0006C14.8571 16.2469 14.8419 16.5051 14.7543 16.7428C14.6667 16.9804 14.5106 17.1867 14.3058 17.3357C14.101 17.4847 13.8566 17.5696 13.6035 17.5798C13.3505 17.5899 13.1001 17.5248 12.884 17.3928L8.93867 14.9646L4.99102 17.3928C4.77494 17.5241 4.52485 17.5885 4.27222 17.578C4.01959 17.5675 3.77572 17.4824 3.57133 17.3336C3.36694 17.1847 3.21115 16.9787 3.1236 16.7415C3.03604 16.5043 3.02063 16.2465 3.0793 16.0006L4.1543 11.4639L0.638672 8.43026C0.447499 8.26504 0.309238 8.04715 0.241158 7.80381C0.173078 7.56048 0.178196 7.30248 0.255871 7.06203C0.333547 6.82159 0.480338 6.60936 0.677913 6.45184C0.875488 6.29433 1.11509 6.19851 1.3668 6.17636L5.97617 5.80448L7.7543 1.50136C7.85054 1.26684 8.01435 1.06624 8.2249 0.925058C8.43545 0.783878 8.68322 0.708496 8.93672 0.708496C9.19022 0.708496 9.43799 0.783878 9.64854 0.925058C9.85909 1.06624 10.0229 1.26684 10.1191 1.50136L11.8965 5.80448L16.5059 6.17636C16.7581 6.19769 16.9984 6.29297 17.1967 6.45027C17.395 6.60756 17.5424 6.81988 17.6206 7.06062C17.6987 7.30135 17.7041 7.5598 17.636 7.80358C17.568 8.04736 17.4295 8.26563 17.2379 8.43104L17.2426 8.43026Z" fill="#EEBD06"/>
<path d="M42.205 8.43026L38.6894 11.4639L39.7605 16.0006C39.8196 16.2469 39.8044 16.5051 39.7168 16.7428C39.6292 16.9804 39.4731 17.1867 39.2683 17.3357C39.0635 17.4847 38.8191 17.5696 38.566 17.5798C38.3129 17.5899 38.0625 17.5248 37.8464 17.3928L33.9011 14.9646L29.9535 17.3928C29.7374 17.5241 29.4873 17.5885 29.2347 17.578C28.9821 17.5675 28.7382 17.4824 28.5338 17.3336C28.3294 17.1847 28.1736 16.9787 28.0861 16.7415C27.9985 16.5043 27.9831 16.2465 28.0418 16.0006L29.1168 11.4639L25.6011 8.43026C25.41 8.26504 25.2717 8.04715 25.2036 7.80381C25.1355 7.56048 25.1407 7.30248 25.2183 7.06203C25.296 6.82159 25.4428 6.60936 25.6404 6.45184C25.838 6.29433 26.0776 6.19851 26.3293 6.17636L30.9386 5.80448L32.7168 1.50136C32.813 1.26684 32.9768 1.06624 33.1874 0.925058C33.3979 0.783878 33.6457 0.708496 33.8992 0.708496C34.1527 0.708496 34.4005 0.783878 34.611 0.925058C34.8215 1.06624 34.9854 1.26684 35.0816 1.50136L36.8589 5.80448L41.4683 6.17636C41.7205 6.19769 41.9608 6.29297 42.1591 6.45027C42.3574 6.60756 42.5049 6.81988 42.583 7.06062C42.6612 7.30135 42.6666 7.5598 42.5985 7.80358C42.5304 8.04736 42.3919 8.26563 42.2004 8.43104L42.205 8.43026Z" fill="#EEBD06"/>
</svg>
